<svg width="367" height="178" viewBox="0 0 367 178" fill="none" xmlns="http://www.w3.org/2000/svg">
<path d="M178.274 0.017673C210.837 0.0489209 243.405 0.118794 267.962 0.20322C280.24 0.245432 290.516 0.291263 297.788 0.337985C301.423 0.361345 304.309 0.384896 306.318 0.408298C307.322 0.419996 308.11 0.431843 308.662 0.443454C308.937 0.449246 309.157 0.455166 309.316 0.461032C309.455 0.466139 309.593 0.472418 309.668 0.485446L310.219 0.58115L310.061 1.11924L309.582 0.977634L310.06 1.12119C310.06 1.12251 310.059 1.12459 310.058 1.12705C310.057 1.13229 310.055 1.14027 310.052 1.15049C310.045 1.17166 310.036 1.20433 310.023 1.24619C309.998 1.33015 309.961 1.45542 309.913 1.62021C309.815 1.95088 309.67 2.44222 309.481 3.08213C309.103 4.36216 308.549 6.23958 307.843 8.629C306.43 13.4088 304.411 20.2385 301.986 28.4356C297.135 44.83 290.658 66.6973 284.148 88.588C277.639 110.479 271.097 132.395 266.121 148.885C263.633 157.13 261.535 164.019 260.028 168.872C259.275 171.298 258.669 173.217 258.235 174.542C258.018 175.204 257.843 175.722 257.714 176.082C257.649 176.261 257.593 176.407 257.549 176.514C257.527 176.566 257.504 176.619 257.481 176.663C257.47 176.685 257.454 176.713 257.435 176.741C257.424 176.759 257.38 176.825 257.305 176.882C257.217 176.949 257.124 176.971 257.11 176.975C257.076 176.984 257.043 176.99 257.017 176.994C256.964 177.003 256.901 177.01 256.834 177.016C256.696 177.028 256.506 177.038 256.27 177.049C255.796 177.07 255.111 177.089 254.232 177.108C252.473 177.144 249.92 177.175 246.683 177.2C240.209 177.252 230.988 177.284 219.879 177.301C197.659 177.336 167.877 177.311 137.377 177.263C76.3766 177.167 12.506 176.978 0.504641 176.983C0.334687 176.954 0.108609 176.791 0.0505396 176.697C0.0294254 176.647 0.00841675 176.565 0.00366457 176.532C-0.00227859 176.48 0.000510386 176.435 0.00171144 176.417C0.00476794 176.373 0.0121082 176.322 0.0192896 176.277C0.0345171 176.183 0.060327 176.049 0.0944849 175.883C0.163484 175.548 0.272498 175.056 0.418704 174.418C0.711581 173.141 1.15559 171.269 1.73023 168.89C2.8797 164.13 4.55325 157.329 6.5857 149.164C10.6508 132.834 16.1542 111.045 21.7849 89.2052C27.4155 67.3662 33.1741 45.4743 37.7478 28.9415C40.0344 20.6761 42.026 13.7453 43.5584 8.8292C44.3241 6.37242 44.9781 4.41084 45.4978 3.03525C45.757 2.34921 45.9874 1.79761 46.1853 1.39951C46.2838 1.20143 46.3798 1.02788 46.4744 0.891696C46.553 0.77847 46.6854 0.607429 46.8767 0.521579L47.0095 0.47861C47.0498 0.469697 47.0841 0.465587 47.1023 0.462985C47.1622 0.454456 47.2354 0.446302 47.3162 0.439548C47.4791 0.425947 47.7008 0.413716 47.9753 0.401462C48.5266 0.376863 49.3118 0.352992 50.3123 0.33115C52.3149 0.287434 55.1944 0.249042 58.823 0.214939C66.0812 0.146724 76.3463 0.0969956 88.615 0.0625949C113.153 -0.00620767 145.712 -0.0135743 178.274 0.017673ZM297.515 8.63095C297.511 8.63329 297.504 8.63706 297.496 8.6417C297.479 8.65113 297.453 8.66594 297.419 8.68467C297.35 8.7223 297.247 8.77853 297.112 8.85263C296.842 9.00099 296.439 9.22171 295.916 9.50888C294.868 10.0834 293.331 10.926 291.373 11.9981C287.456 14.143 281.855 17.2071 275.123 20.8819C261.657 28.232 243.66 38.0259 225.542 47.8038C207.42 57.5832 189.186 67.341 175.238 74.6192C168.261 78.26 162.377 81.2693 158.123 83.3487C155.991 84.391 154.303 85.1822 153.106 85.6993C152.836 85.8162 152.599 85.9136 152.397 85.9952C152.297 85.9325 152.185 85.8646 152.065 85.7872C151.212 85.2373 150.028 84.4172 148.54 83.3448C145.572 81.2069 141.525 78.1622 136.752 74.5001C127.211 67.1807 114.852 57.4592 102.605 47.7433C90.3619 38.0298 78.2421 28.3309 69.1824 21.0597C64.6527 17.4242 60.8882 14.3956 58.2566 12.2765C56.941 11.217 55.9084 10.3848 55.2048 9.81748C54.8532 9.53398 54.5836 9.31646 54.4021 9.17002C54.3114 9.09682 54.2421 9.04115 54.196 9.004C54.1731 8.9855 54.1558 8.97132 54.1443 8.96201C54.1386 8.95741 54.1345 8.95358 54.1316 8.95127C54.1303 8.95016 54.1294 8.94891 54.1287 8.94834C54.1279 8.9479 54.1125 8.96599 52.0857 11.4767C50.1797 13.8377 50.0534 13.995 50.0457 14.006C50.0464 14.0065 50.0472 14.0078 50.0486 14.0089C50.0515 14.0113 50.0564 14.0149 50.0623 14.0196C50.0739 14.029 50.0912 14.0432 50.114 14.0616C50.1603 14.0989 50.2292 14.1553 50.3201 14.2286C50.5021 14.3754 50.7725 14.593 51.1248 14.877C51.8294 15.4452 52.8635 16.2785 54.1804 17.339C56.8143 19.46 60.5814 22.4902 65.114 26.128C74.1792 33.4036 86.3097 43.1112 98.5662 52.8351C110.819 62.5564 123.211 72.304 132.795 79.6563C137.583 83.3299 141.693 86.4223 144.741 88.6183C146.26 89.7128 147.549 90.6098 148.542 91.2501C149.034 91.5675 149.498 91.8504 149.904 92.0694C150.106 92.1783 150.335 92.2936 150.573 92.3936C150.76 92.4723 151.173 92.6375 151.682 92.7013C152.357 92.7856 152.937 92.6484 153.112 92.6075C153.393 92.5419 153.672 92.4546 153.92 92.3692C154.421 92.1962 155.023 91.9524 155.685 91.6661C157.023 91.0883 158.818 90.2446 160.978 89.1886C165.31 87.0708 171.255 84.0289 178.246 80.381C192.235 73.0812 210.502 63.3073 228.63 53.5245C246.76 43.7401 264.765 33.9399 278.236 26.587C284.972 22.9106 290.575 19.8454 294.494 17.6993C296.453 16.6263 297.993 15.7832 299.042 15.2081C299.566 14.9207 299.968 14.6995 300.239 14.5509C300.374 14.4768 300.477 14.4206 300.546 14.3829L300.643 14.3292C300.645 14.3281 300.647 14.3268 300.648 14.3263C300.645 14.3182 300.567 14.1755 299.086 11.4767C297.599 8.76796 297.525 8.63502 297.52 8.629C297.519 8.62955 297.517 8.62999 297.515 8.63095ZM301.934 9.91318C301.071 8.34009 299.095 7.76475 297.522 8.62802L300.649 14.3253C302.222 13.4615 302.798 11.4865 301.934 9.91318ZM54.1267 8.94834C52.7302 7.82106 50.6849 8.03937 49.5574 9.43564C48.43 10.8322 48.6481 12.8775 50.0447 14.005L54.1267 8.94834Z" fill="url(#paint0_linear_424_1925)"/>
<mask id="mask0_424_1925" style="mask-type:alpha" maskUnits="userSpaceOnUse" x="273" y="167" width="93" height="10">
<path d="M278 172H361" stroke="black" stroke-width="10" stroke-linecap="round"/>
</mask>
<g mask="url(#mask0_424_1925)">
<path d="M266.933 179.5L307.84 3H369.498L367.324 179.5H266.933Z" fill="url(#paint1_linear_424_1925)"/>
</g>
<mask id="mask1_424_1925" style="mask-type:alpha" maskUnits="userSpaceOnUse" x="284" y="127" width="82" height="10">
<path d="M289 132H361" stroke="black" stroke-width="10" stroke-linecap="round"/>
</mask>
<g mask="url(#mask1_424_1925)">
<path d="M270.519 175.5L310.369 -1L370.433 -1L368.316 175.5L270.519 175.5Z" fill="url(#paint2_linear_424_1925)"/>
</g>
<mask id="mask2_424_1925" style="mask-type:alpha" maskUnits="userSpaceOnUse" x="316" y="1" width="51" height="10">
<path d="M321 6L362 6" stroke="black" stroke-width="10" stroke-linecap="round"/>
</mask>
<g mask="url(#mask2_424_1925)">
<path d="M284.556 173L317.624 -3L367.467 -3L365.71 173L284.556 173Z" fill="url(#paint3_linear_424_1925)"/>
</g>
<mask id="mask3_424_1925" style="mask-type:alpha" maskUnits="userSpaceOnUse" x="307" y="43" width="59" height="10">
<path d="M312 48H361" stroke="black" stroke-width="10" stroke-linecap="round"/>
</mask>
<g mask="url(#mask3_424_1925)">
<path d="M280.823 172.5L315.56 -4L367.916 -4L366.07 172.5L280.823 172.5Z" fill="url(#paint4_linear_424_1925)"/>
</g>
<mask id="mask4_424_1925" style="mask-type:alpha" maskUnits="userSpaceOnUse" x="296" y="86" width="70" height="10">
<path d="M301 91L331 91L361 91" stroke="black" stroke-width="10" stroke-linecap="round"/>
</mask>
<g mask="url(#mask4_424_1925)">
<path d="M273.53 172.5L310.94 -4H367.325L365.338 172.5H273.53Z" fill="url(#paint5_linear_424_1925)"/>
</g>
<defs>
<linearGradient id="paint0_linear_424_1925" x1="164.028" y1="44.8154" x2="131.093" y2="196.346" gradientUnits="userSpaceOnUse">
<stop stop-color="#98C2FF"/>
<stop offset="1" stop-color="#0D6EF6"/>
</linearGradient>
<linearGradient id="paint1_linear_424_1925" x1="317.129" y1="4.5" x2="317.129" y2="179.5" gradientUnits="userSpaceOnUse">
<stop stop-color="#98C2FF"/>
<stop offset="1" stop-color="#7E39FF"/>
</linearGradient>
<linearGradient id="paint2_linear_424_1925" x1="319.417" y1="0.5" x2="319.417" y2="175.5" gradientUnits="userSpaceOnUse">
<stop stop-color="#98C2FF"/>
<stop offset="1" stop-color="#7E39FF"/>
</linearGradient>
<linearGradient id="paint3_linear_424_1925" x1="325.133" y1="-1.50425" x2="325.133" y2="173" gradientUnits="userSpaceOnUse">
<stop stop-color="#98C2FF"/>
<stop offset="1" stop-color="#7E39FF"/>
</linearGradient>
<linearGradient id="paint4_linear_424_1925" x1="323.447" y1="-2.5" x2="323.447" y2="172.5" gradientUnits="userSpaceOnUse">
<stop stop-color="#98C2FF"/>
<stop offset="1" stop-color="#7E39FF"/>
</linearGradient>
<linearGradient id="paint5_linear_424_1925" x1="319.434" y1="-2.5" x2="319.434" y2="172.5" gradientUnits="userSpaceOnUse">
<stop stop-color="#98C2FF"/>
<stop offset="1" stop-color="#7E39FF"/>
</linearGradient>
</defs>
</svg>
