<svg width="381" height="185" viewBox="0 0 381 185" fill="none" xmlns="http://www.w3.org/2000/svg">
<path d="M182.026 2.5177L182.029 0.0177014L182.026 2.5177ZM271.717 2.70325L271.725 0.203262L271.717 2.70325ZM301.546 2.83801L301.562 0.338064V0.338064L301.546 2.83801ZM310.083 2.90833L310.112 0.408495V0.408495L310.083 2.90833ZM312.438 2.94348L312.491 0.444034V0.444034L312.438 2.94348ZM313.112 2.96204L313.204 0.463729L313.204 0.463726L313.112 2.96204ZM313.633 3.00403L314.063 0.541384L314.063 0.54133L313.633 3.00403ZM315.565 3.34192L317.963 4.05023L318.757 1.36203L315.996 0.879274L315.565 3.34192ZM315.01 5.22278L314.302 7.62055L316.699 8.32794L317.407 5.93109L315.01 5.22278ZM313.332 4.72766L314.04 2.32989L312.622 7.12467L313.332 4.72766ZM315.01 5.22473L317.392 5.98242L318.165 3.55216L315.72 2.82772L315.01 5.22473ZM315.008 5.23059L312.61 4.5229L312.608 4.52857L315.008 5.23059ZM315.001 5.255L317.399 5.96308L317.399 5.96271L315.001 5.255ZM314.973 5.34973L312.575 4.64198V4.64201L314.973 5.34973ZM314.862 5.72473L317.26 6.43256V6.43256L314.862 5.72473ZM314.431 7.18567L316.828 7.89367L314.431 7.18567ZM312.792 12.7335L315.19 13.4419L312.792 12.7335ZM306.936 32.5402L309.333 33.2495L306.936 32.5402ZM289.097 92.6945L291.493 93.407L289.097 92.6945ZM271.067 152.996L273.461 153.719V153.719L271.067 152.996ZM264.973 172.993L267.36 173.735V173.735L264.973 172.993ZM263.173 178.682L265.549 179.46V179.46L263.173 178.682ZM262.64 180.255L264.992 181.102L264.992 181.102L262.64 180.255ZM262.452 180.747L264.758 181.713L264.758 181.713L262.452 180.747ZM262.342 180.987L264.562 182.136L264.562 182.136L262.342 180.987ZM262.229 181.181L260.143 179.803L260.143 179.803L262.229 181.181ZM261.81 181.629L263.317 183.624L263.317 183.623L261.81 181.629ZM261.183 181.933L261.826 184.348L261.827 184.348L261.183 181.933ZM260.966 181.979L261.362 184.447L261.362 184.447L260.966 181.979ZM260.693 182.011L260.912 184.501L260.912 184.501L260.693 182.011ZM260.076 182.048L260.187 184.546H260.187L260.076 182.048ZM258.008 182.108L258.059 184.607V184.607L258.008 182.108ZM250.443 182.2L250.463 184.7V184.7L250.443 182.2ZM223.631 182.301L223.635 184.801V184.801L223.631 182.301ZM141.125 182.263L141.121 184.763L141.125 182.263ZM4.25488 181.984L3.82693 184.447L4.03988 184.484L4.25603 184.484L4.25488 181.984ZM2.6748 180.988L0.3664 181.948L0.444251 182.135L0.551258 182.308L2.6748 180.988ZM2.51172 180.424L0.0278835 180.708L0.032068 180.744L0.0373306 180.781L2.51172 180.424ZM2.50488 180.081L0.010792 179.909L0.0107882 179.909L2.50488 180.081ZM2.53516 179.83L0.066669 179.435L0.0666499 179.435L2.53516 179.83ZM2.62012 179.381L0.17162 178.876L0.17161 178.876L2.62012 179.381ZM2.9502 177.889L0.513469 177.33L0.513466 177.33L2.9502 177.889ZM4.26562 172.347L1.83548 171.76H1.83548L4.26562 172.347ZM9.12305 152.612L6.69708 152.009V152.009L9.12305 152.612ZM24.3252 92.6437L21.9044 92.0195V92.0195L24.3252 92.6437ZM40.293 32.3585L37.8835 31.6919V31.6919L40.293 32.3585ZM46.1152 12.2072L43.7285 11.4632V11.4632L46.1152 12.2072ZM48.0781 6.34387L45.7395 5.46035L45.7394 5.46039L48.0781 6.34387ZM48.8154 4.5929L46.5767 3.48016L46.5767 3.48029L48.8154 4.5929ZM49.1982 3.92883L47.145 2.50255L47.1449 2.50273L49.1982 3.92883ZM50.1152 3.13098L49.2337 0.791555L49.1617 0.818674L49.0916 0.850166L50.1152 3.13098ZM50.3174 3.05481L49.5692 0.669391L49.5019 0.690505L49.4359 0.715383L50.3174 3.05481ZM50.6758 2.97473L51.0059 5.45284L51.0174 5.45131L51.0288 5.44968L50.6758 2.97473ZM50.9619 2.94446L50.7536 0.453148L50.7536 0.453152L50.9619 2.94446ZM51.6699 2.90247L51.5585 0.404952L51.5584 0.404952L51.6699 2.90247ZM54.0352 2.83215L53.9806 0.332749H53.9806L54.0352 2.83215ZM62.5615 2.71497L62.538 0.215076V0.215076L62.5615 2.71497ZM92.3613 2.56262L92.3543 0.0626318V0.0626318L92.3613 2.56262ZM291.522 20.9406L292.72 23.1353L292.724 23.1328L291.522 20.9406ZM291.504 20.9503L292.705 23.1426L292.706 23.1426L291.504 20.9503ZM291.431 20.9904L290.229 18.798L290.229 18.798L291.431 20.9904ZM291.14 21.1505L292.341 23.343V23.343L291.14 21.1505ZM290.003 21.7726L291.204 23.9654V23.9654L290.003 21.7726ZM285.686 24.1349L286.885 26.3283V26.3283L285.686 24.1349ZM270.248 32.5636L271.445 34.7586L270.248 32.5636ZM223.148 58.1075L224.335 60.3082V60.3082L223.148 58.1075ZM175.357 83.5568L176.513 85.7735V85.7735L175.357 83.5568ZM159.073 91.8575L160.171 94.1036H160.171L159.073 91.8575ZM154.247 94.1202L155.24 96.4148L155.24 96.4147L154.247 94.1202ZM152.896 94.6613L153.714 97.024L153.714 97.0237L152.896 94.6613ZM152.8 94.6906L151.612 96.8906L152.559 97.4013L153.58 97.0656L152.8 94.6906ZM152.782 94.6818L151.581 96.8744L151.581 96.8745L152.782 94.6818ZM151.823 94.0919L150.452 96.1822L150.452 96.1822L151.823 94.0919ZM148.497 91.7452L147.018 93.7604V93.7604L148.497 91.7452ZM137.561 83.3771L136.02 85.3458V85.3458L137.561 83.3771ZM105.991 58.131L104.418 60.0738V60.0738L105.991 58.131ZM75.1123 32.963L73.5278 34.8967V34.8967L75.1123 32.963ZM65.0195 24.6798L63.4318 26.6109V26.6109L65.0195 24.6798ZM62.2002 22.3595L63.7892 20.4295L63.7892 20.4295L62.2002 22.3595ZM61.458 21.7491L59.8684 23.6787L59.8684 23.6787L61.458 21.7491ZM61.2686 21.5919L62.8585 19.6626L62.8582 19.6624L61.2686 21.5919ZM61.2197 21.5529L59.6292 23.4816L59.6297 23.482L61.2197 21.5529ZM61.208 21.5431L59.5842 23.444L59.6009 23.4582L59.6179 23.4722L61.208 21.5431ZM61.2051 21.5402L62.7952 19.6111L61.2528 18.3397L59.6732 19.5645L61.2051 21.5402ZM59.2969 23.8556L56.8128 24.1371L56.9266 25.1417L57.7067 25.7847L59.2969 23.8556ZM59.2998 23.8575L60.8899 21.9284L60.8689 21.9111L60.8475 21.8942L59.2998 23.8575ZM59.3125 23.8673L60.9026 21.9381L60.8996 21.9357L59.3125 23.8673ZM59.3604 23.9073L57.7703 25.8365L57.7704 25.8366L59.3604 23.9073ZM59.5508 24.0646L57.9611 25.9941L57.9611 25.9941L59.5508 24.0646ZM60.293 24.6759L58.7039 26.6059V26.6059L60.293 24.6759ZM63.1143 26.9962L61.5265 28.9273V28.9273L63.1143 26.9962ZM73.21 35.2833L71.6254 37.217H71.6254L73.21 35.2833ZM104.103 60.462L102.529 62.4048V62.4048L104.103 60.462ZM135.711 85.7394L134.17 87.7081V87.7081L135.711 85.7394ZM146.722 94.1632L145.242 96.1784V96.1784L146.722 94.1632ZM150.178 96.6007L148.806 98.691L148.806 98.691L150.178 96.6007ZM151.341 97.3126L150.14 99.5052L150.14 99.5053L151.341 97.3126ZM151.832 97.5558L150.853 99.8563L150.854 99.8565L151.832 97.5558ZM152.47 97.7384L152.158 100.219L152.158 100.219L152.47 97.7384ZM153.271 97.6779L153.843 100.112L153.843 100.112L153.271 97.6779ZM153.878 97.4962L154.696 99.8586L154.696 99.8586L153.878 97.4962ZM155.438 96.8732L156.431 99.1677L156.431 99.1677L155.438 96.8732ZM160.391 94.5529L161.489 96.7989H161.489L160.391 94.5529ZM176.744 86.2169L177.9 88.4337V88.4337L176.744 86.2169ZM224.571 60.7482L225.758 62.9488V62.9488L224.571 60.7482ZM271.684 35.1974L272.88 37.3924V37.3924L271.684 35.1974ZM287.125 26.7667L288.325 28.9601V28.9601L287.125 26.7667ZM291.444 24.4044L292.645 26.5972V26.5972L291.444 24.4044ZM292.581 23.7814L291.38 21.5889V21.5889L292.581 23.7814ZM292.872 23.6212L291.671 21.4289L291.671 21.4289L292.872 23.6212ZM292.946 23.5812L294.147 25.7737L294.148 25.7734L292.946 23.5812ZM292.965 23.5704L291.763 21.3782L291.757 21.3817L292.965 23.5704ZM292.97 23.5685L294.045 25.8252L294.31 25.6991L294.539 25.515L292.97 23.5685ZM292.25 22.2521L294.442 21.0503V21.0503L292.25 22.2521ZM291.527 20.9376L290.326 18.7454L290.306 18.7559L290.288 18.7667L291.527 20.9376ZM61.2041 21.5392L63.1337 23.1287L64.7231 21.1993L62.7938 19.6097L61.2041 21.5392ZM59.0928 21.7433L57.1637 20.1531L57.1633 20.1536L59.0928 21.7433ZM59.2959 23.8546L57.7055 25.7835L59.6344 27.374L61.2248 25.445L59.2959 23.8546ZM293.565 21.5314L295.758 20.3301L295.758 20.3294L293.565 21.5314ZM291.529 20.9366L290.328 18.7442L288.136 19.9454L289.337 22.1379L291.529 20.9366ZM292.971 23.5675L290.778 24.7687L291.98 26.9618L294.172 25.7597L292.971 23.5675ZM182.026 2.5177L182.024 5.0177C214.586 5.04895 247.153 5.11881 271.708 5.20323L271.717 2.70325L271.725 0.203262C247.165 0.118823 214.594 0.0489519 182.029 0.0177014L182.026 2.5177ZM271.717 2.70325L271.708 5.20323C283.986 5.24544 294.26 5.29125 301.53 5.33796L301.546 2.83801L301.562 0.338064C294.285 0.291307 284.005 0.245478 271.725 0.203262L271.717 2.70325ZM301.546 2.83801L301.53 5.33796C305.165 5.36132 308.048 5.38479 310.054 5.40816L310.083 2.90833L310.112 0.408495C308.093 0.384976 305.199 0.361436 301.562 0.338064L301.546 2.83801ZM310.083 2.90833L310.054 5.40816C311.057 5.41984 311.839 5.43144 312.386 5.44293L312.438 2.94348L312.491 0.444034C311.921 0.432048 311.12 0.420233 310.112 0.408495L310.083 2.90833ZM312.438 2.94348L312.386 5.44293C312.655 5.44858 312.868 5.45473 313.02 5.46035L313.112 2.96204L313.204 0.463726C313.018 0.456893 312.778 0.450068 312.491 0.444034L312.438 2.94348ZM313.112 2.96204L313.02 5.46034C313.083 5.46265 313.128 5.46403 313.181 5.46746C313.206 5.46904 313.223 5.47051 313.232 5.47147C313.244 5.47266 313.232 5.47185 313.203 5.46673L313.633 3.00403L314.063 0.54133C313.677 0.473894 313.237 0.464926 313.204 0.463729L313.112 2.96204ZM313.633 3.00403L313.202 5.46667L315.135 5.80456L315.565 3.34192L315.996 0.879274L314.063 0.541384L313.633 3.00403ZM315.565 3.34192L313.168 2.63361L312.612 4.51447L315.01 5.22278L317.407 5.93109L317.963 4.05023L315.565 3.34192ZM315.01 5.22278L315.717 2.82501L314.04 2.32989L313.332 4.72766L312.624 7.12543L314.302 7.62055L315.01 5.22278ZM313.332 4.72766L312.622 7.12467L314.3 7.62174L315.01 5.22473L315.72 2.82772L314.042 2.33065L313.332 4.72766ZM315.01 5.22473L312.627 4.46704C312.633 4.44837 312.638 4.43349 312.641 4.42496C312.644 4.4161 312.647 4.40921 312.648 4.40626C312.648 4.40352 312.649 4.4009 312.649 4.4022C312.649 4.4025 312.648 4.40533 312.647 4.4088C312.644 4.41576 312.639 4.43006 312.633 4.44815C312.627 4.46619 312.619 4.49189 312.61 4.5229L315.008 5.23059L317.406 5.93828C317.397 5.96815 317.389 5.9927 317.383 6.00963C317.378 6.02661 317.373 6.03983 317.371 6.04577C317.371 6.04737 317.37 6.04866 317.37 6.04951C317.37 6.04994 317.37 6.05028 317.369 6.05051C317.369 6.05073 317.369 6.05089 317.369 6.0509C317.369 6.05172 317.37 6.04865 317.371 6.04548C317.372 6.0421 317.375 6.0348 317.378 6.02556C317.381 6.01665 317.386 6.00141 317.392 5.98242L315.01 5.22473ZM315.008 5.23059L312.608 4.52857C312.605 4.54036 312.602 4.55022 312.6 4.55695C312.598 4.56379 312.597 4.56946 312.596 4.57297C312.595 4.57644 312.594 4.57944 312.594 4.58056C312.593 4.5819 312.594 4.58108 312.593 4.58195C312.593 4.5822 312.593 4.58217 312.593 4.582C312.594 4.58095 312.598 4.56653 312.603 4.5473L315.001 5.255L317.399 5.96271C317.407 5.9331 317.414 5.90914 317.417 5.8998C317.417 5.89775 317.418 5.8954 317.418 5.89529C317.418 5.8945 317.418 5.89567 317.417 5.89742C317.417 5.89921 317.416 5.90324 317.414 5.90854C317.413 5.91374 317.41 5.92215 317.407 5.93261L315.008 5.23059ZM315.001 5.255L312.603 4.54693C312.603 4.54673 312.603 4.54839 312.601 4.55385C312.599 4.55978 312.598 4.56488 312.595 4.57446C312.59 4.59168 312.583 4.61491 312.575 4.64198L314.973 5.34973L317.37 6.05748C317.375 6.04281 317.379 6.02926 317.383 6.01485C317.385 6.00861 317.388 5.99918 317.39 5.99188C317.392 5.98412 317.395 5.97387 317.399 5.96308L315.001 5.255ZM314.973 5.34973L312.575 4.64201C312.514 4.84976 312.547 4.73616 312.465 5.0169L314.862 5.72473L317.26 6.43256C317.285 6.34847 317.307 6.27452 317.325 6.21156C317.344 6.14769 317.359 6.09751 317.37 6.05746L314.973 5.34973ZM314.862 5.72473L312.465 5.0169C312.366 5.35011 312.223 5.83374 312.033 6.47767L314.431 7.18567L316.828 7.89367C317.016 7.25838 317.163 6.76066 317.26 6.43256L314.862 5.72473ZM314.431 7.18567L312.033 6.47767C311.655 7.75772 311.1 9.6356 310.394 12.0251L312.792 12.7335L315.19 13.4419C315.896 11.052 316.45 9.17387 316.828 7.89367L314.431 7.18567ZM312.792 12.7335L310.394 12.0251C308.982 16.8048 306.964 23.6339 304.538 31.8309L306.936 32.5402L309.333 33.2495C311.758 25.0519 313.777 18.2221 315.19 13.4419L312.792 12.7335ZM306.936 32.5402L304.538 31.8309C299.688 48.225 293.21 70.0918 286.7 91.9819L289.097 92.6945L291.493 93.407C298.003 71.514 304.482 49.6448 309.333 33.2495L306.936 32.5402ZM289.097 92.6945L286.7 91.9819C280.191 113.872 273.65 135.786 268.674 152.274L271.067 152.996L273.461 153.719C278.439 137.221 284.983 115.299 291.493 93.407L289.097 92.6945ZM271.067 152.996L268.674 152.274C266.186 160.518 264.09 167.404 262.585 172.252L264.973 172.993L267.36 173.735C268.872 168.867 270.972 161.965 273.461 153.719L271.067 152.996ZM264.973 172.993L262.585 172.252C261.832 174.676 261.228 176.588 260.797 177.904L263.173 178.682L265.549 179.46C265.992 178.107 266.605 176.165 267.36 173.735L264.973 172.993ZM263.173 178.682L260.797 177.904C260.582 178.561 260.411 179.066 260.287 179.408L262.64 180.255L264.992 181.102C265.14 180.69 265.329 180.132 265.549 179.46L263.173 178.682ZM262.64 180.255L260.287 179.408C260.224 179.585 260.178 179.706 260.146 179.782L262.452 180.747L264.758 181.713C264.841 181.515 264.922 181.295 264.992 181.102L262.64 180.255ZM262.452 180.747L260.146 179.782C260.137 179.803 260.131 179.818 260.126 179.829C260.12 179.841 260.119 179.844 260.121 179.839L262.342 180.987L264.562 182.136C264.655 181.957 264.723 181.796 264.758 181.713L262.452 180.747ZM262.342 180.987L260.121 179.839C260.123 179.835 260.126 179.83 260.129 179.825C260.131 179.82 260.136 179.813 260.143 179.803L262.229 181.181L264.314 182.559C264.432 182.381 264.515 182.228 264.562 182.136L262.342 180.987ZM262.229 181.181L260.143 179.803C260.133 179.817 260.144 179.8 260.156 179.784C260.166 179.769 260.177 179.755 260.189 179.741C260.21 179.716 260.246 179.677 260.302 179.635L261.81 181.629L263.317 183.623C263.626 183.39 263.857 183.148 264.018 182.957C264.099 182.859 264.166 182.771 264.219 182.698C264.245 182.662 264.267 182.63 264.285 182.603C264.301 182.579 264.317 182.555 264.314 182.559L262.229 181.181ZM261.81 181.629L260.302 179.634C260.372 179.582 260.428 179.557 260.459 179.544C260.478 179.537 260.499 179.529 260.523 179.522C260.535 179.518 260.548 179.515 260.561 179.511C260.567 179.51 260.573 179.508 260.576 179.507C260.577 179.507 260.579 179.507 260.575 179.508C260.574 179.508 260.57 179.509 260.566 179.51C260.563 179.511 260.552 179.514 260.538 179.517L261.183 181.933L261.827 184.348C261.822 184.35 262.043 184.296 262.319 184.185C262.584 184.079 262.945 183.905 263.317 183.624L261.81 181.629ZM261.183 181.933L260.539 179.517C260.55 179.514 260.557 179.513 260.56 179.512C260.564 179.511 260.568 179.511 260.57 179.51L260.966 181.979L261.362 184.447C261.456 184.432 261.625 184.402 261.826 184.348L261.183 181.933ZM260.966 181.979L260.57 179.51C260.568 179.51 260.559 179.512 260.54 179.514C260.522 179.516 260.501 179.518 260.475 179.52L260.693 182.011L260.912 184.501C261.012 184.493 261.178 184.477 261.362 184.447L260.966 181.979ZM260.693 182.011L260.475 179.52C260.365 179.53 260.197 179.54 259.965 179.55L260.076 182.048L260.187 184.546C260.438 184.534 260.693 184.521 260.912 184.501L260.693 182.011ZM260.076 182.048L259.965 179.55C259.506 179.571 258.833 179.59 257.957 179.608L258.008 182.108L258.059 184.607C258.946 184.589 259.667 184.569 260.187 184.546L260.076 182.048ZM258.008 182.108L257.957 179.608C256.205 179.644 253.659 179.675 250.423 179.7L250.443 182.2L250.463 184.7C253.704 184.674 256.275 184.644 258.059 184.607L258.008 182.108ZM250.443 182.2L250.423 179.7C243.953 179.752 234.736 179.784 223.627 179.801L223.631 182.301L223.635 184.801C234.746 184.784 243.976 184.752 250.463 184.7L250.443 182.2ZM223.631 182.301L223.627 179.801C201.409 179.836 171.629 179.811 141.129 179.763L141.125 182.263L141.121 184.763C171.622 184.811 201.409 184.836 223.635 184.801L223.631 182.301ZM141.125 182.263L141.129 179.763C80.1322 179.667 16.2543 179.478 4.25373 179.484L4.25488 181.984L4.25603 184.484C16.2517 184.478 80.1055 184.667 141.121 184.763L141.125 182.263ZM4.25488 181.984L4.68284 179.52C4.75112 179.532 4.79487 179.546 4.81128 179.551C4.82883 179.557 4.83212 179.559 4.8213 179.554C4.79677 179.543 4.75114 179.519 4.69631 179.483C4.64088 179.446 4.60617 179.417 4.5979 179.41C4.5945 179.407 4.60939 179.42 4.63677 179.45C4.65105 179.466 4.67233 179.491 4.69813 179.524C4.7234 179.557 4.75878 179.605 4.79835 179.669L2.6748 180.988L0.551258 182.308C0.941465 182.936 1.55565 183.4 1.93872 183.654C2.36694 183.937 3.04589 184.311 3.82693 184.447L4.25488 181.984ZM2.6748 180.988L4.98321 180.029C4.99038 180.046 4.99429 180.056 4.99516 180.059C4.9962 180.062 4.99574 180.061 4.99396 180.055C4.99224 180.05 4.98989 180.043 4.98708 180.033C4.98429 180.024 4.98141 180.014 4.97861 180.004C4.9758 179.994 4.97336 179.985 4.97139 179.978C4.96937 179.97 4.96824 179.965 4.96793 179.964C4.96748 179.962 4.96882 179.967 4.97128 179.98C4.97256 179.986 4.97452 179.996 4.97687 180.009C4.97915 180.022 4.98249 180.042 4.98611 180.067L2.51172 180.424L0.0373306 180.781C0.0846863 181.109 0.219536 181.595 0.3664 181.948L2.6748 180.988ZM2.51172 180.424L4.99555 180.14C4.99981 180.177 5.00019 180.204 5.00009 180.219C5.00002 180.228 4.99975 180.237 4.99935 180.245C4.99894 180.254 4.99833 180.262 4.99898 180.253L2.50488 180.081L0.0107882 179.909C0.00577903 179.982 -0.0181286 180.305 0.0278835 180.708L2.51172 180.424ZM2.50488 180.081L4.99897 180.253C4.99851 180.26 4.99813 180.263 4.99811 180.264C4.99807 180.264 4.99822 180.262 4.99866 180.259C4.9996 180.252 5.00092 180.243 5.00366 180.226L2.53516 179.83L0.0666499 179.435C0.0558298 179.502 0.025964 179.689 0.010792 179.909L2.50488 180.081ZM2.53516 179.83L5.00364 180.226C5.01451 180.158 5.03575 180.045 5.06862 179.886L2.62012 179.381L0.17161 178.876C0.134456 179.056 0.0953512 179.256 0.066669 179.435L2.53516 179.83ZM2.62012 179.381L5.06861 179.886C5.13487 179.564 5.24151 179.082 5.38692 178.448L2.9502 177.889L0.513466 177.33C0.36548 177.975 0.249113 178.5 0.17162 178.876L2.62012 179.381ZM2.9502 177.889L5.38692 178.448C5.67811 177.178 6.12136 175.312 6.69577 172.934L4.26562 172.347L1.83548 171.76C1.26002 174.143 0.811295 176.031 0.513469 177.33L2.9502 177.889ZM4.26562 172.347L6.69577 172.934C7.84425 168.178 9.51683 161.38 11.549 153.216L9.12305 152.612L6.69708 152.009C4.66362 160.177 2.98788 166.988 1.83548 171.76L4.26562 172.347ZM9.12305 152.612L11.549 153.216C15.6133 136.89 21.1163 115.104 26.746 93.2678L24.3252 92.6437L21.9044 92.0195C16.2709 113.869 10.7645 135.669 6.69708 152.009L9.12305 152.612ZM24.3252 92.6437L26.746 93.2678C32.3761 71.431 38.1317 49.5473 42.7025 33.0251L40.293 32.3585L37.8835 31.6919C33.3009 48.2568 27.5366 70.1741 21.9044 92.0195L24.3252 92.6437ZM40.293 32.3585L42.7025 33.0251C44.9881 24.763 46.9757 17.8476 48.502 12.9511L46.1152 12.2072L43.7285 11.4632C42.1777 16.4385 40.1729 23.4162 37.8835 31.6919L40.293 32.3585ZM46.1152 12.2072L48.502 12.9511C49.2655 10.5015 49.9104 8.56797 50.4168 7.22736L48.0781 6.34387L45.7394 5.46039C45.1801 6.94093 44.5006 8.98619 43.7285 11.4632L46.1152 12.2072ZM48.0781 6.34387L50.4168 7.22739C50.6708 6.55511 50.8839 6.04817 51.0542 5.7055L48.8154 4.5929L46.5767 3.48029C46.296 4.04494 46.0142 4.73306 45.7395 5.46035L48.0781 6.34387ZM48.8154 4.5929L51.0541 5.70563C51.139 5.53487 51.2055 5.4213 51.2516 5.35494L49.1982 3.92883L47.1449 2.50273C46.9033 2.85054 46.7139 3.20424 46.5767 3.48016L48.8154 4.5929ZM49.1982 3.92883L51.2515 5.35511C51.271 5.32702 51.2714 5.3268 51.2726 5.32523C51.274 5.3234 51.2733 5.3246 51.2697 5.32822C51.2664 5.33159 51.2559 5.34188 51.2366 5.35597C51.217 5.37034 51.1846 5.39129 51.1389 5.4118L50.1152 3.13098L49.0916 0.850166C47.8905 1.38924 47.2627 2.33314 47.145 2.50255L49.1982 3.92883ZM50.1152 3.13098L50.9968 5.47041L51.1989 5.39424L50.3174 3.05481L49.4359 0.715383L49.2337 0.791555L50.1152 3.13098ZM50.3174 3.05481L51.0656 5.44023C51.0569 5.44296 51.0507 5.44456 51.0471 5.44546C51.0433 5.44639 51.0395 5.44721 51.0351 5.44806C51.0305 5.44895 51.0239 5.45011 51.0146 5.45151C51.0098 5.45224 51.0047 5.45296 50.9995 5.45366C50.997 5.45401 50.9949 5.45428 50.9939 5.45441C50.9938 5.45442 50.9933 5.45449 50.9948 5.45429C50.9953 5.45423 50.9966 5.45406 50.9981 5.45387C50.9995 5.45368 51.0024 5.45331 51.0059 5.45284L50.6758 2.97473L50.3457 0.496623C50.3583 0.494937 50.3145 0.500536 50.2668 0.507754C50.2187 0.515029 50.159 0.524906 50.0904 0.53812C49.9558 0.564018 49.7745 0.604999 49.5692 0.669391L50.3174 3.05481ZM50.6758 2.97473L51.0288 5.44968C51.0336 5.449 51.0475 5.44717 51.0738 5.44449C51.0999 5.44183 51.1304 5.43909 51.1702 5.43576L50.9619 2.94446L50.7536 0.453152C50.6565 0.461272 50.4944 0.475302 50.3228 0.49978L50.6758 2.97473ZM50.9619 2.94446L51.1702 5.43577C51.3099 5.42408 51.5135 5.41194 51.7814 5.39998L51.6699 2.90247L51.5584 0.404952C51.2653 0.418036 50.9878 0.433572 50.7536 0.453148L50.9619 2.94446ZM51.6699 2.90247L51.7814 5.39998C52.3179 5.37604 53.0912 5.35336 54.0897 5.33156L54.0352 2.83215L53.9806 0.332749C52.9724 0.354759 52.1533 0.378405 51.5585 0.404952L51.6699 2.90247ZM54.0352 2.83215L54.0897 5.33156C56.0846 5.28801 58.958 5.24895 62.585 5.21486L62.5615 2.71497L62.538 0.215076C58.905 0.249223 56.0069 0.288513 53.9806 0.332749L54.0352 2.83215ZM62.5615 2.71497L62.585 5.21486C69.8389 5.14668 80.1003 5.09701 92.3683 5.06261L92.3613 2.56262L92.3543 0.0626318C80.0835 0.097039 69.8088 0.146741 62.538 0.215076L62.5615 2.71497ZM92.3613 2.56262L92.3683 5.06261C116.904 4.99381 149.462 4.98645 182.024 5.0177L182.026 2.5177L182.029 0.0177014C149.464 -0.0135481 116.899 -0.00619102 92.3543 0.0626318L92.3613 2.56262ZM291.522 20.9406L290.325 18.7458C290.337 18.7393 290.347 18.7341 290.353 18.7308C290.36 18.7274 290.365 18.7248 290.367 18.7235C290.37 18.7222 290.372 18.7213 290.371 18.7215C290.371 18.7218 290.371 18.7214 290.37 18.722C290.37 18.7223 290.369 18.7228 290.368 18.7233C290.359 18.7278 290.334 18.7409 290.302 18.758L291.504 20.9503L292.706 23.1426C292.693 23.1492 292.683 23.1547 292.676 23.1587C292.668 23.1625 292.663 23.1654 292.662 23.166C292.661 23.166 292.661 23.1665 292.663 23.1655C292.664 23.165 292.667 23.1633 292.671 23.1614C292.674 23.1594 292.681 23.1561 292.688 23.1521C292.696 23.1481 292.707 23.1424 292.72 23.1353L291.522 20.9406ZM291.504 20.9503L290.302 18.758C290.296 18.7612 290.289 18.7654 290.275 18.7728C290.263 18.7797 290.247 18.7882 290.229 18.798L291.431 20.9904L292.632 23.1827C292.647 23.1748 292.659 23.1678 292.671 23.1613C292.682 23.1554 292.695 23.1484 292.705 23.1426L291.504 20.9503ZM291.431 20.9904L290.229 18.798C289.993 18.9277 290.222 18.8025 289.938 18.958L291.14 21.1505L292.341 23.343C292.408 23.3062 292.467 23.2738 292.516 23.2466C292.567 23.2185 292.603 23.1985 292.632 23.1827L291.431 20.9904ZM291.14 21.1505L289.938 18.958C289.68 19.0998 289.305 19.3045 288.802 19.5798L290.003 21.7726L291.204 23.9654C291.696 23.6956 292.086 23.4828 292.341 23.343L291.14 21.1505ZM290.003 21.7726L288.802 19.5798C287.807 20.1247 286.346 20.9242 284.486 21.9415L285.686 24.1349L286.885 26.3283C288.746 25.3107 290.208 24.5108 291.204 23.9654L290.003 21.7726ZM285.686 24.1349L284.486 21.9415C280.766 23.9761 275.446 26.8827 269.051 30.3685L270.248 32.5636L271.445 34.7586C277.842 31.2714 283.163 28.3638 286.885 26.3283L285.686 24.1349ZM270.248 32.5636L269.051 30.3685C256.261 37.341 239.169 46.6318 221.962 55.9069L223.148 58.1075L224.335 60.3082C241.551 51.0281 258.65 41.7332 271.445 34.7586L270.248 32.5636ZM223.148 58.1075L221.962 55.9069C204.752 65.1839 187.439 74.4379 174.202 81.34L175.357 83.5568L176.513 85.7735C189.782 78.8551 207.119 69.5879 224.335 60.3082L223.148 58.1075ZM175.357 83.5568L174.202 81.34C167.579 84.7931 162.001 87.6436 157.975 89.6115L159.073 91.8575L160.171 94.1036C164.256 92.1067 169.88 89.2322 176.513 85.7735L175.357 83.5568ZM159.073 91.8575L157.975 89.6115C155.955 90.599 154.369 91.3435 153.254 91.8257L154.247 94.1202L155.24 96.4147C156.462 95.8858 158.131 95.1008 160.171 94.1036L159.073 91.8575ZM154.247 94.1202L153.255 91.8257C152.692 92.0688 152.309 92.2192 152.079 92.2989L152.896 94.6613L153.714 97.0237C154.114 96.8852 154.628 96.6795 155.24 96.4148L154.247 94.1202ZM152.896 94.6613L152.079 92.2985C152.107 92.2888 152.13 92.2819 152.143 92.2779C152.155 92.2741 152.163 92.2718 152.159 92.2731C152.158 92.2734 152.157 92.2737 152.155 92.2743C152.153 92.2749 152.15 92.2757 152.147 92.2766C152.141 92.2783 152.131 92.281 152.12 92.2842C152.099 92.2904 152.063 92.3012 152.019 92.3155L152.8 94.6906L153.58 97.0656C153.551 97.0751 153.53 97.0813 153.524 97.083C153.522 97.0836 153.515 97.0856 153.533 97.0805C153.554 97.0745 153.627 97.0538 153.714 97.024L152.896 94.6613ZM152.8 94.6906L153.987 92.4905C153.968 92.48 153.95 92.471 153.936 92.4636C153.922 92.4562 153.909 92.4501 153.9 92.4455C153.89 92.4409 153.883 92.4372 153.878 92.435C153.876 92.4339 153.874 92.433 153.873 92.4325C153.872 92.4321 153.871 92.4314 153.871 92.4316C153.871 92.4316 153.871 92.4316 153.871 92.4316C153.871 92.4316 153.871 92.4317 153.871 92.4317C153.871 92.4317 153.872 92.4318 153.872 92.4318C153.872 92.432 153.872 92.4322 153.873 92.4325C153.874 92.433 153.876 92.4339 153.878 92.435C153.883 92.4372 153.89 92.4408 153.899 92.4453C153.909 92.4499 153.92 92.4559 153.934 92.4631C153.948 92.4702 153.965 92.4789 153.983 92.489L152.782 94.6818L151.581 96.8745C151.621 96.8959 151.653 96.9124 151.674 96.9228C151.685 96.928 151.693 96.9324 151.699 96.9353C151.705 96.938 151.71 96.9403 151.711 96.9408C151.713 96.942 151.711 96.9407 151.708 96.9396C151.705 96.9381 151.699 96.9351 151.691 96.9312C151.676 96.9238 151.648 96.9097 151.612 96.8906L152.8 94.6906ZM152.782 94.6818L153.983 92.4891C153.839 92.41 153.583 92.2561 153.195 92.0016L151.823 94.0919L150.452 96.1822C150.89 96.4697 151.271 96.7044 151.581 96.8744L152.782 94.6818ZM151.823 94.0919L153.195 92.0016C152.427 91.498 151.349 90.7373 149.977 89.7301L148.497 91.7452L147.018 93.7604C148.414 94.7854 149.575 95.6067 150.452 96.1822L151.823 94.0919ZM148.497 91.7452L149.977 89.7301C147.244 87.7237 143.512 84.86 139.101 81.4083L137.561 83.3771L136.02 85.3458C140.441 88.8062 144.222 91.7077 147.018 93.7604L148.497 91.7452ZM137.561 83.3771L139.101 81.4083C130.289 74.5118 118.876 65.3492 107.565 56.1882L105.991 58.131L104.418 60.0738C115.735 69.2392 127.174 78.4229 136.02 85.3458L137.561 83.3771ZM105.991 58.131L107.565 56.1882C96.2564 47.0302 85.0635 37.8852 76.6968 31.0293L75.1123 32.963L73.5278 34.8967C81.8986 41.7561 93.0996 50.9076 104.418 60.0738L105.991 58.131ZM75.1123 32.963L76.6968 31.0293C72.5138 27.6016 69.0371 24.7466 66.6073 22.7487L65.0195 24.6798L63.4318 26.6109C65.8638 28.6105 69.3426 31.4672 73.5278 34.8967L75.1123 32.963ZM65.0195 24.6798L66.6073 22.7487C65.3927 21.7501 64.4397 20.965 63.7892 20.4295L62.2002 22.3595L60.6111 24.2895C61.2607 24.8243 62.2155 25.6109 63.4318 26.6109L65.0195 24.6798ZM62.2002 22.3595L63.7892 20.4295C63.452 20.1518 63.2222 19.9634 63.0476 19.8196L61.458 21.7491L59.8684 23.6787C60.0293 23.8112 60.2985 24.0321 60.6111 24.2895L62.2002 22.3595ZM61.458 21.7491L63.0477 19.8196C63.0109 19.7894 62.9782 19.7621 62.9478 19.7368C62.9204 19.714 62.8863 19.6856 62.8585 19.6626L61.2686 21.5919L59.6786 23.5212C59.6933 23.5333 59.7121 23.549 59.7479 23.5788C59.7806 23.606 59.8213 23.6399 59.8684 23.6787L61.458 21.7491ZM61.2686 21.5919L62.8582 19.6624C62.8268 19.6365 62.8007 19.6159 62.788 19.6059C62.7854 19.6039 62.7818 19.601 62.7812 19.6006C62.7797 19.5994 62.7801 19.5996 62.7811 19.6004C62.7821 19.6012 62.7852 19.6037 62.7895 19.6072C62.7938 19.6106 62.8009 19.6164 62.8098 19.6237L61.2197 21.5529L59.6297 23.482C59.6412 23.4916 59.6512 23.4996 59.6585 23.5055C59.6659 23.5114 59.6723 23.5165 59.6767 23.52C59.6811 23.5235 59.6851 23.5266 59.6873 23.5284C59.6905 23.5309 59.6908 23.5311 59.6924 23.5324C59.6961 23.5353 59.6891 23.5298 59.679 23.5215L61.2686 21.5919ZM61.2197 21.5529L62.8103 19.6241C62.8152 19.6282 62.8188 19.6312 62.8183 19.6308C62.8179 19.6304 62.8181 19.6306 62.8171 19.6298C62.8165 19.6293 62.8153 19.6283 62.8139 19.6271C62.8125 19.6259 62.8105 19.6242 62.808 19.6221C62.8056 19.6201 62.8022 19.6173 62.7981 19.614L61.208 21.5431L59.6179 23.4722C59.6145 23.4694 59.6118 23.4672 59.6101 23.4658C59.6084 23.4643 59.6071 23.4632 59.6065 23.4628C59.6059 23.4623 59.6056 23.462 59.6059 23.4623C59.6061 23.4624 59.6062 23.4625 59.6065 23.4627C59.6068 23.463 59.6071 23.4633 59.6076 23.4636C59.611 23.4665 59.6191 23.4733 59.6292 23.4816L61.2197 21.5529ZM61.208 21.5431L62.8318 19.6422C62.864 19.6697 62.892 19.6951 62.9155 19.7171C62.9391 19.7391 62.9593 19.7589 62.9757 19.7753C62.9921 19.7918 63.0057 19.8058 63.0157 19.8163C63.0256 19.8267 63.0333 19.8349 63.0367 19.8386C63.0376 19.8395 63.0383 19.8404 63.0388 19.8409C63.0393 19.8414 63.0396 19.8417 63.0396 19.8417C63.0401 19.8422 63.0386 19.8406 63.037 19.8389C63.0342 19.8359 63.0239 19.8248 63.0106 19.8109C63.0035 19.8035 62.9943 19.794 62.9834 19.7829C62.9725 19.772 62.9588 19.7583 62.9427 19.7427C62.9266 19.7272 62.9066 19.7082 62.883 19.6869C62.8596 19.6657 62.8301 19.6398 62.7952 19.6111L61.2051 21.5402L59.6149 23.4693C59.5802 23.4406 59.5507 23.4148 59.5274 23.3937C59.5039 23.3724 59.4839 23.3535 59.468 23.3381C59.452 23.3226 59.4384 23.309 59.4276 23.2981C59.4168 23.2872 59.4076 23.2777 59.4007 23.2705C59.3937 23.2632 59.3879 23.257 59.3838 23.2527C59.3798 23.2484 59.3766 23.245 59.375 23.2432C59.3735 23.2416 59.3721 23.2401 59.3726 23.2407C59.3727 23.2407 59.3741 23.2423 59.3759 23.2443C59.3796 23.2482 59.3875 23.2567 59.3976 23.2673C59.4079 23.2781 59.4218 23.2925 59.4385 23.3092C59.4552 23.3259 59.4757 23.3459 59.4996 23.3683C59.5234 23.3906 59.5517 23.4162 59.5842 23.444L61.208 21.5431ZM61.2051 21.5402L59.6732 19.5645C59.5284 19.6768 59.4282 19.7814 59.4122 19.7978C59.378 19.833 59.3521 19.8618 59.3413 19.8738C59.3185 19.8993 59.3006 19.9204 59.2958 19.926C59.2826 19.9415 59.2692 19.9577 59.2598 19.969C59.2379 19.9953 59.201 20.0399 59.139 20.1151C59.0134 20.2672 58.7747 20.5568 58.3209 21.1072L60.25 22.6974L62.1791 24.2876C62.6333 23.7366 62.8708 23.4485 62.995 23.2979C63.0579 23.2218 63.0894 23.1837 63.105 23.165C63.1143 23.1538 63.1119 23.1567 63.1052 23.1646C63.1037 23.1664 63.0879 23.1851 63.0664 23.209C63.0564 23.2202 63.031 23.2484 62.9971 23.2833C62.9796 23.3013 62.9514 23.3298 62.9154 23.3635C62.8828 23.3942 62.8206 23.451 62.737 23.5158L61.2051 21.5402ZM60.25 22.6974L58.3209 21.1072C57.8554 21.6719 57.6162 21.9623 57.4933 22.1117C57.4329 22.1851 57.3973 22.2285 57.3763 22.2544C57.3688 22.2635 57.3513 22.285 57.3336 22.3076C57.3309 22.3109 57.2954 22.3558 57.2547 22.4134C57.2409 22.4329 57.1749 22.5257 57.1052 22.6527C57.0709 22.7152 56.9975 22.8543 56.9328 23.0426C56.8751 23.2103 56.7535 23.6141 56.8128 24.1371L59.2969 23.8556L61.781 23.5741C61.8118 23.8458 61.7931 24.0794 61.7648 24.2545C61.7368 24.4282 61.6951 24.5694 61.661 24.6685C61.5963 24.8567 61.5229 24.9956 61.4887 25.058C61.4191 25.1848 61.3534 25.2772 61.3399 25.2963C61.3 25.3528 61.2659 25.3958 61.2656 25.3961C61.2527 25.4126 61.2442 25.4229 61.2532 25.4117C61.2654 25.3968 61.2934 25.3627 61.3549 25.2879C61.4757 25.141 61.7131 24.8528 62.1791 24.2876L60.25 22.6974ZM59.2969 23.8556L57.7067 25.7847C57.7396 25.8118 57.7694 25.835 57.7949 25.8541C57.8205 25.8733 57.8434 25.8898 57.8629 25.9034C57.9007 25.9299 57.932 25.9503 57.9509 25.9624C57.9701 25.9746 57.9853 25.984 57.9908 25.9873C57.9938 25.9892 57.9963 25.9907 57.9966 25.9909C57.9976 25.9915 57.9959 25.9904 57.9944 25.9895C57.9909 25.9874 57.9813 25.9815 57.9689 25.9738C57.9564 25.9659 57.939 25.9548 57.9186 25.9413C57.8786 25.9148 57.8199 25.8743 57.7521 25.8209L59.2998 23.8575L60.8475 21.8942C60.7791 21.8403 60.7199 21.7995 60.6793 21.7726C60.6586 21.7589 60.641 21.7477 60.6282 21.7396C60.6156 21.7317 60.6056 21.7256 60.6019 21.7233C60.6003 21.7223 60.5985 21.7212 60.5994 21.7218C60.5995 21.7218 60.6018 21.7233 60.6048 21.7251C60.61 21.7283 60.625 21.7375 60.6439 21.7496C60.6627 21.7616 60.6938 21.7818 60.7314 21.8081C60.7507 21.8217 60.7736 21.8381 60.7991 21.8573C60.8245 21.8764 60.8543 21.8995 60.887 21.9265L59.2969 23.8556ZM59.2998 23.8575L57.7097 25.7867C57.722 25.7968 57.733 25.8057 57.7424 25.8131C57.7518 25.8206 57.7601 25.8272 57.7672 25.8327C57.7809 25.8433 57.7921 25.8518 57.7987 25.8567C57.8052 25.8617 57.8105 25.8656 57.812 25.8667C57.8127 25.8672 57.8138 25.868 57.8134 25.8678C57.8134 25.8678 57.8132 25.8677 57.813 25.8675C57.8128 25.8673 57.8124 25.867 57.8119 25.8667C57.8086 25.8642 57.7973 25.8558 57.7828 25.8446C57.768 25.8332 57.7483 25.8177 57.7254 25.7989L59.3125 23.8673L60.8996 21.9357C60.8741 21.9147 60.8518 21.8972 60.8345 21.8839C60.8175 21.8708 60.8039 21.8607 60.7984 21.8566C60.797 21.8555 60.7958 21.8546 60.7953 21.8543C60.7945 21.8536 60.795 21.8541 60.7952 21.8542C60.7957 21.8545 60.8 21.8578 60.8057 21.862C60.8114 21.8663 60.8217 21.8741 60.8346 21.8842C60.8413 21.8893 60.8493 21.8956 60.8583 21.9028C60.8673 21.91 60.878 21.9186 60.8899 21.9284L59.2998 23.8575ZM59.3125 23.8673L57.7225 25.7965C57.7155 25.7908 57.711 25.787 57.7123 25.7881C57.7143 25.7898 57.7144 25.7898 57.7211 25.7955C57.7315 25.8042 57.749 25.819 57.7703 25.8365L59.3604 23.9073L60.9504 21.9782C60.9505 21.9782 60.9495 21.9774 60.9438 21.9727C60.9426 21.9716 60.9354 21.9655 60.9307 21.9616C60.9253 21.9571 60.9149 21.9483 60.9025 21.9381L59.3125 23.8673ZM59.3604 23.9073L57.7704 25.8366C57.79 25.8527 57.8144 25.8729 57.8474 25.9002C57.8796 25.9268 57.9177 25.9583 57.9611 25.9941L59.5508 24.0646L61.1404 22.1351C61.0196 22.0355 61.0376 22.05 60.9503 21.9781L59.3604 23.9073ZM59.5508 24.0646L57.9611 25.9941C58.1289 26.1323 58.3785 26.338 58.7039 26.6059L60.293 24.6759L61.882 22.7459C61.5574 22.4786 61.3085 22.2735 61.1404 22.1351L59.5508 24.0646ZM60.293 24.6759L58.7039 26.6059C59.3552 27.1421 60.3111 27.928 61.5265 28.9273L63.1143 26.9962L64.702 25.0652C63.4856 24.065 62.5316 23.2807 61.882 22.7459L60.293 24.6759ZM63.1143 26.9962L61.5265 28.9273C63.9592 30.9275 67.4385 33.7861 71.6254 37.217L73.21 35.2833L74.7945 33.3496C70.6103 29.921 67.1333 27.0642 64.702 25.0652L63.1143 26.9962ZM73.21 35.2833L71.6254 37.217C79.9988 44.0785 91.2048 53.2338 102.529 62.4048L104.103 60.462L105.676 58.5192C94.3617 49.3563 83.1636 40.2076 74.7945 33.3496L73.21 35.2833ZM104.103 60.462L102.529 62.4048C113.85 71.5729 125.304 80.7694 134.17 87.7081L135.711 85.7394L137.252 83.7706C128.42 76.8583 116.991 67.6828 105.676 58.5192L104.103 60.462ZM135.711 85.7394L134.17 87.7081C138.599 91.1741 142.409 94.098 145.242 96.1784L146.722 94.1632L148.201 92.148C145.431 90.1138 141.669 87.2276 137.252 83.7706L135.711 85.7394ZM146.722 94.1632L145.242 96.1784C146.652 97.2137 147.863 98.0721 148.806 98.691L150.178 96.6007L151.549 94.5104C150.716 93.9639 149.588 93.1665 148.201 92.148L146.722 94.1632ZM150.178 96.6007L148.806 98.691C149.275 98.9985 149.73 99.2808 150.14 99.5052L151.341 97.3126L152.542 95.12C152.296 94.9853 151.964 94.7827 151.549 94.5104L150.178 96.6007ZM151.341 97.3126L150.14 99.5053C150.339 99.6143 150.586 99.7426 150.853 99.8563L151.832 97.5558L152.811 95.2553C152.756 95.2321 152.669 95.1899 152.542 95.1199L151.341 97.3126ZM151.832 97.5558L150.854 99.8565C151.061 99.9445 151.546 100.142 152.158 100.219L152.47 97.7384L152.782 95.258C152.808 95.2612 152.826 95.2649 152.836 95.2672C152.841 95.2684 152.845 95.2694 152.847 95.27C152.849 95.2707 152.851 95.271 152.851 95.2711C152.851 95.2711 152.85 95.2708 152.848 95.2702C152.846 95.2695 152.844 95.2686 152.84 95.2674C152.834 95.2648 152.824 95.2611 152.81 95.2551L151.832 97.5558ZM152.47 97.7384L152.158 100.219C152.973 100.321 153.659 100.155 153.843 100.112L153.271 97.6779L152.7 95.244C152.658 95.2539 152.653 95.2541 152.655 95.2538C152.658 95.2535 152.669 95.2523 152.687 95.2521C152.706 95.2518 152.738 95.2524 152.781 95.2579L152.47 97.7384ZM153.271 97.6779L153.843 100.112C154.153 100.039 154.45 99.9438 154.696 99.8586L153.878 97.4962L153.06 95.1338C152.891 95.1925 152.774 95.2267 152.7 95.2441L153.271 97.6779ZM153.878 97.4962L154.696 99.8586C155.201 99.6838 155.794 99.4433 156.431 99.1677L155.438 96.8732L154.446 94.5787C153.856 94.834 153.393 95.0185 153.06 95.1338L153.878 97.4962ZM155.438 96.8732L156.431 99.1677C157.718 98.611 159.435 97.8026 161.489 96.7989L160.391 94.5529L159.293 92.3068C157.26 93.3004 155.625 94.0685 154.446 94.5787L155.438 96.8732ZM160.391 94.5529L161.489 96.7989C165.609 94.7845 171.26 91.8955 177.9 88.4337L176.744 86.2169L175.588 84.0002C168.959 87.4565 163.354 90.3215 159.293 92.3068L160.391 94.5529ZM176.744 86.2169L177.9 88.4337C191.188 81.5055 208.539 72.23 225.758 62.9488L224.571 60.7482L223.385 58.5475C206.171 67.8261 188.845 77.0883 175.588 84.0002L176.744 86.2169ZM224.571 60.7482L225.758 62.9488C242.98 53.6657 260.083 44.3682 272.88 37.3924L271.684 35.1974L270.487 33.0023C257.694 39.976 240.598 49.2694 223.385 58.5475L224.571 60.7482ZM271.684 35.1974L272.88 37.3924C279.279 33.9045 284.602 30.9962 288.325 28.9601L287.125 26.7667L285.925 24.5733C282.204 26.6085 276.883 29.5157 270.487 33.0023L271.684 35.1974ZM287.125 26.7667L288.325 28.9601C290.184 27.943 291.648 27.1431 292.645 26.5972L291.444 24.4044L290.244 22.2116C289.248 22.7567 287.788 23.5549 285.925 24.5733L287.125 26.7667ZM291.444 24.4044L292.645 26.5972C293.142 26.325 293.529 26.1129 293.782 25.9739L292.581 23.7814L291.38 21.5889C291.119 21.7317 290.742 21.9386 290.244 22.2116L291.444 24.4044ZM292.581 23.7814L293.782 25.9739C293.85 25.937 293.908 25.9046 293.958 25.8775C294.009 25.8493 294.045 25.8294 294.074 25.8135L292.872 23.6212L291.671 21.4289C291.434 21.5587 291.664 21.4333 291.38 21.5889L292.581 23.7814ZM292.872 23.6212L294.074 25.8136C294.079 25.8106 294.085 25.8074 294.095 25.802C294.098 25.8002 294.108 25.7952 294.114 25.7917C294.121 25.7878 294.134 25.7812 294.147 25.7737L292.946 23.5812L291.745 21.3887C291.751 21.3856 291.754 21.3841 291.75 21.3858C291.746 21.3879 291.745 21.3889 291.735 21.3938C291.721 21.4017 291.698 21.414 291.671 21.4289L292.872 23.6212ZM292.946 23.5812L294.148 25.7734C294.19 25.7506 294.222 25.7314 294.233 25.7248C294.235 25.7235 294.238 25.7218 294.237 25.7222C294.237 25.7222 294.237 25.7223 294.237 25.7225C294.237 25.7226 294.236 25.7228 294.236 25.7231C294.235 25.7236 294.234 25.7245 294.232 25.7257C294.228 25.7278 294.221 25.7319 294.212 25.737C294.203 25.7421 294.19 25.7499 294.173 25.7592L292.965 23.5704L291.757 21.3817C291.739 21.3915 291.724 21.4 291.714 21.4057C291.704 21.4116 291.696 21.4164 291.691 21.4192C291.686 21.4221 291.682 21.4244 291.681 21.4251C291.679 21.4264 291.68 21.4255 291.681 21.4251C291.686 21.4222 291.711 21.4073 291.745 21.3889L292.946 23.5812ZM292.965 23.5704L294.167 25.7627C294.071 25.8153 293.986 25.8532 293.924 25.8792C293.861 25.905 293.812 25.9226 293.789 25.9304C293.778 25.9341 293.769 25.9372 293.771 25.9366C293.771 25.9366 293.772 25.9364 293.773 25.936C293.774 25.9357 293.775 25.9352 293.777 25.9345C293.781 25.9332 293.788 25.931 293.796 25.9282C293.81 25.923 293.84 25.9124 293.878 25.8977C293.914 25.8835 293.974 25.8593 294.045 25.8252L292.97 23.5685L291.894 21.3117C291.965 21.2778 292.025 21.2537 292.061 21.2396C292.098 21.2251 292.128 21.2146 292.142 21.2095C292.15 21.2068 292.156 21.2046 292.16 21.2034C292.162 21.2028 292.163 21.2023 292.164 21.202C292.164 21.2018 292.165 21.2017 292.165 21.2016C292.165 21.2016 292.165 21.2015 292.165 21.2015C292.165 21.2015 292.165 21.2015 292.165 21.2015C292.165 21.2015 292.165 21.2015 292.165 21.2015C292.167 21.201 292.157 21.2042 292.146 21.2081C292.123 21.2162 292.072 21.2342 292.009 21.2603C291.945 21.2867 291.86 21.3251 291.763 21.3782L292.965 23.5704ZM292.97 23.5685L294.539 25.515C294.889 25.2324 295.2 24.8235 295.36 24.3006C295.496 23.8555 295.475 23.4809 295.455 23.2928C295.417 22.951 295.313 22.696 295.302 22.6687C295.272 22.5904 295.244 22.5306 295.234 22.5084C295.221 22.48 295.21 22.4574 295.203 22.445C295.184 22.4057 295.164 22.37 295.16 22.3623C295.144 22.3313 295.116 22.2808 295.071 22.1988C294.979 22.0304 294.798 21.6997 294.442 21.0503L292.25 22.2521L290.058 23.4538C290.414 24.1042 290.594 24.4314 290.683 24.596C290.73 24.6805 290.749 24.7154 290.755 24.7282C290.763 24.7424 290.75 24.7183 290.733 24.685C290.728 24.6741 290.717 24.6528 290.704 24.6253C290.694 24.604 290.667 24.5449 290.637 24.467C290.627 24.4402 290.523 24.1854 290.485 23.8439C290.464 23.6558 290.443 23.2813 290.579 22.8363C290.74 22.3134 291.05 21.9045 291.401 21.622L292.97 23.5685ZM292.25 22.2521L294.442 21.0503C294.082 20.3932 293.901 20.0625 293.809 19.8961C293.765 19.8155 293.737 19.7657 293.72 19.7351C293.717 19.7306 293.694 19.6881 293.666 19.6427C293.658 19.6284 293.64 19.5994 293.616 19.5637C293.6 19.5395 293.544 19.4537 293.461 19.3522C293.457 19.3478 293.13 18.91 292.53 18.6474C292.116 18.4663 291.603 18.3772 291.055 18.4827C290.814 18.529 290.626 18.6019 290.506 18.6557C290.447 18.6823 290.4 18.7061 290.371 18.7211C290.36 18.7269 290.343 18.7359 290.337 18.7389C290.332 18.742 290.326 18.7453 290.326 18.7454L291.527 20.9376L292.729 23.1298C292.729 23.13 292.723 23.1332 292.717 23.1363C292.712 23.1394 292.695 23.1483 292.684 23.1542C292.655 23.1691 292.608 23.193 292.549 23.2195C292.428 23.2733 292.24 23.3462 292 23.3925C291.452 23.498 290.939 23.4089 290.525 23.2279C290.174 23.0742 289.942 22.8755 289.836 22.7787C289.719 22.6711 289.637 22.5748 289.595 22.5234C289.512 22.4223 289.456 22.337 289.44 22.3134C289.417 22.2784 289.4 22.2504 289.392 22.2373C289.368 22.1969 289.35 22.1646 289.359 22.1806C289.365 22.1909 289.382 22.2231 289.428 22.3068C289.518 22.4689 289.697 22.7958 290.058 23.4538L292.25 22.2521ZM291.527 20.9376L290.288 18.7667C290.265 18.7797 290.247 18.7905 290.236 18.7968C290.225 18.8033 290.217 18.8086 290.213 18.8112C290.21 18.8126 290.208 18.8138 290.207 18.8145C290.206 18.8152 290.205 18.8158 290.205 18.8158C290.204 18.8163 290.207 18.8149 290.209 18.8133C290.215 18.81 290.228 18.8017 290.245 18.7914C290.263 18.7811 290.289 18.7659 290.321 18.7483L291.522 20.9406L292.724 23.1328C292.757 23.1146 292.784 23.0989 292.802 23.0881C292.821 23.0772 292.835 23.0684 292.841 23.0646C292.843 23.0635 292.844 23.0627 292.845 23.0621C292.846 23.0619 292.846 23.0616 292.846 23.0615C292.846 23.0614 292.846 23.0614 292.846 23.0613C292.846 23.0613 292.846 23.0613 292.846 23.0613C292.846 23.0613 292.846 23.0613 292.846 23.0613C292.847 23.0609 292.844 23.0628 292.84 23.0652C292.836 23.0675 292.828 23.0726 292.818 23.079C292.807 23.0851 292.79 23.0957 292.767 23.1085L291.527 20.9376ZM61.2041 21.5392L62.7938 19.6097C61.088 18.2043 58.5677 18.4499 57.1637 20.1531L59.0928 21.7433L61.0218 23.3335C60.6716 23.7584 60.0418 23.8208 59.6144 23.4687L61.2041 21.5392ZM59.0928 21.7433L57.1633 20.1536C55.7595 21.8574 56.0007 24.3778 57.7055 25.7835L59.2959 23.8546L60.8863 21.9258C61.3131 22.2776 61.3727 22.9076 61.0222 23.333L59.0928 21.7433ZM59.2959 23.8546L61.2248 25.445L62.1789 24.2877L60.25 22.6974L58.3211 21.107L57.367 22.2643L59.2959 23.8546ZM60.25 22.6974L62.1796 24.2869L63.1337 23.1287L61.2041 21.5392L59.2745 19.9496L58.3204 21.1078L60.25 22.6974ZM293.565 21.5314L295.758 20.3294C294.696 18.3938 292.266 17.6824 290.328 18.7442L291.529 20.9366L292.731 23.1291C292.245 23.395 291.638 23.2165 291.373 22.7333L293.565 21.5314ZM291.529 20.9366L289.337 22.1379L290.778 24.7687L292.971 23.5675L295.163 22.3663L293.722 19.7354L291.529 20.9366ZM292.971 23.5675L294.172 25.7597C296.109 24.6983 296.82 22.2678 295.758 20.3301L293.565 21.5314L291.373 22.7326C291.107 22.2477 291.285 21.6404 291.769 21.3753L292.971 23.5675Z" fill="url(#paint0_linear_424_1926)"/>
<mask id="mask0_424_1926" style="mask-type:alpha" maskUnits="userSpaceOnUse" x="286" y="169" width="95" height="13">
<path d="M292.25 175.25H374.25" stroke="black" stroke-width="12" stroke-linecap="round"/>
</mask>
<g mask="url(#mask0_424_1926)">
<path d="M281.317 182.75L321.731 6.24988H382.645L380.498 182.75H281.317Z" fill="url(#paint1_linear_424_1926)"/>
</g>
<mask id="mask1_424_1926" style="mask-type:alpha" maskUnits="userSpaceOnUse" x="298" y="128" width="83" height="11">
<path d="M303.25 133.25H375.25" stroke="black" stroke-width="10" stroke-linecap="round"/>
</mask>
<g mask="url(#mask1_424_1926)">
<path d="M284.769 176.75L324.619 0.249878L384.683 0.249878L382.566 176.75L284.769 176.75Z" fill="url(#paint2_linear_424_1926)"/>
</g>
<mask id="mask2_424_1926" style="mask-type:alpha" maskUnits="userSpaceOnUse" x="330" y="9" width="51" height="5">
<path d="M332.25 11.2499L378.25 11.2499" stroke="url(#paint3_linear_424_1926)" stroke-width="4" stroke-linecap="round"/>
</mask>
<g mask="url(#mask2_424_1926)">
<path d="M290.738 177.25L327.839 1.24988L383.76 1.24988L381.789 177.25L290.738 177.25Z" fill="url(#paint4_linear_424_1926)"/>
</g>
<mask id="mask3_424_1926" style="mask-type:alpha" maskUnits="userSpaceOnUse" x="320" y="48" width="61" height="7">
<path d="M323.25 51.2499H377.25" stroke="black" stroke-width="6" stroke-linecap="round"/>
</mask>
<g mask="url(#mask3_424_1926)">
<path d="M288.892 175.75L327.173 -0.750122L384.872 -0.750122L382.838 175.75L288.892 175.75Z" fill="url(#paint5_linear_424_1926)"/>
</g>
<mask id="mask4_424_1926" style="mask-type:alpha" maskUnits="userSpaceOnUse" x="309" y="88" width="72" height="9">
<path d="M313.25 92.2499L344.75 92.2499L376.25 92.2499" stroke="black" stroke-width="8" stroke-linecap="round"/>
</mask>
<g mask="url(#mask4_424_1926)">
<path d="M284.407 173.75L323.687 -2.75012L382.892 -2.75012L380.805 173.75L284.407 173.75Z" fill="url(#paint6_linear_424_1926)"/>
</g>
<defs>
<linearGradient id="paint0_linear_424_1926" x1="158.36" y1="8.24988" x2="158.36" y2="185.567" gradientUnits="userSpaceOnUse">
<stop stop-color="#98C2FF"/>
<stop offset="1" stop-color="#0D6EF6"/>
</linearGradient>
<linearGradient id="paint1_linear_424_1926" x1="330.907" y1="7.74988" x2="330.907" y2="182.75" gradientUnits="userSpaceOnUse">
<stop stop-color="#98C2FF"/>
<stop offset="1" stop-color="#7E39FF"/>
</linearGradient>
<linearGradient id="paint2_linear_424_1926" x1="333.667" y1="1.74988" x2="333.667" y2="176.75" gradientUnits="userSpaceOnUse">
<stop stop-color="#98C2FF"/>
<stop offset="1" stop-color="#7E39FF"/>
</linearGradient>
<linearGradient id="paint3_linear_424_1926" x1="332.25" y1="11.7499" x2="378.25" y2="11.7499" gradientUnits="userSpaceOnUse">
<stop stop-color="#98C2FF"/>
<stop offset="1" stop-color="#7E39FF"/>
</linearGradient>
<linearGradient id="paint4_linear_424_1926" x1="336.263" y1="2.74563" x2="336.263" y2="177.25" gradientUnits="userSpaceOnUse">
<stop stop-color="#98C2FF"/>
<stop offset="1" stop-color="#7E39FF"/>
</linearGradient>
<linearGradient id="paint5_linear_424_1926" x1="335.865" y1="0.749878" x2="335.865" y2="175.75" gradientUnits="userSpaceOnUse">
<stop stop-color="#98C2FF"/>
<stop offset="1" stop-color="#7E39FF"/>
</linearGradient>
<linearGradient id="paint6_linear_424_1926" x1="332.606" y1="-1.25012" x2="332.606" y2="173.75" gradientUnits="userSpaceOnUse">
<stop stop-color="#98C2FF"/>
<stop offset="1" stop-color="#7E39FF"/>
</linearGradient>
</defs>
</svg>
