<svg width="608" height="187" viewBox="0 0 608 187" fill="none" xmlns="http://www.w3.org/2000/svg">
<path d="M301.526 4.04187L301.529 1.54187L301.526 4.04187ZM391.217 4.22742L391.225 1.72743L391.217 4.22742ZM421.046 4.36218L421.062 1.86223V1.86223L421.046 4.36218ZM429.583 4.4325L429.612 1.93266V1.93266L429.583 4.4325ZM431.938 4.46765L431.991 1.9682V1.9682L431.938 4.46765ZM432.612 4.48621L432.704 1.9879L432.704 1.9879L432.612 4.48621ZM433.133 4.5282L433.563 2.06555L433.563 2.0655L433.133 4.5282ZM435.065 4.86609L437.463 5.5744L438.257 2.8862L435.496 2.40344L435.065 4.86609ZM434.51 6.74695L433.802 9.14472L436.199 9.85211L436.907 7.45526L434.51 6.74695ZM432.832 6.25183L433.54 3.85406L432.122 8.64884L432.832 6.25183ZM434.51 6.7489L436.892 7.50659L437.665 5.07633L435.22 4.35189L434.51 6.7489ZM434.508 6.75476L432.11 6.04707L432.108 6.05274L434.508 6.75476ZM434.501 6.77917L436.899 7.48725L436.899 7.48688L434.501 6.77917ZM434.473 6.8739L432.075 6.16615V6.16618L434.473 6.8739ZM434.362 7.2489L436.76 7.95673V7.95673L434.362 7.2489ZM433.931 8.70984L436.328 9.41784L433.931 8.70984ZM432.292 14.2577L434.69 14.9661L432.292 14.2577ZM426.436 34.0643L428.833 34.7736L426.436 34.0643ZM408.597 94.2186L410.993 94.9312L408.597 94.2186ZM390.567 154.52L392.961 155.243V155.243L390.567 154.52ZM384.473 174.517L386.86 175.259V175.259L384.473 174.517ZM382.673 180.206L385.049 180.984V180.984L382.673 180.206ZM382.14 181.779L384.492 182.626L384.492 182.626L382.14 181.779ZM381.952 182.271L384.258 183.237L384.258 183.237L381.952 182.271ZM381.842 182.512L384.062 183.66L384.062 183.66L381.842 182.512ZM381.729 182.705L379.643 181.327L379.643 181.327L381.729 182.705ZM381.31 183.153L382.817 185.148L382.817 185.147L381.31 183.153ZM380.683 183.457L381.326 185.873L381.327 185.872L380.683 183.457ZM380.466 183.503L380.862 185.971L380.862 185.971L380.466 183.503ZM380.193 183.535L380.412 186.025L380.412 186.025L380.193 183.535ZM379.576 183.572L379.687 186.07H379.687L379.576 183.572ZM377.508 183.632L377.559 186.131V186.131L377.508 183.632ZM369.943 183.724L369.963 186.224V186.224L369.943 183.724ZM343.131 183.825L343.135 186.325V186.325L343.131 183.825ZM260.625 183.787L260.621 186.287L260.625 183.787ZM123.755 183.508L123.327 185.971L123.54 186.008L123.756 186.008L123.755 183.508ZM122.175 182.513L119.866 183.472L119.944 183.66L120.051 183.832L122.175 182.513ZM122.012 181.948L119.528 182.232L119.532 182.269L119.537 182.305L122.012 181.948ZM122.005 181.605L119.511 181.434L119.511 181.434L122.005 181.605ZM122.035 181.354L119.567 180.959L119.567 180.959L122.035 181.354ZM122.12 180.905L119.672 180.4L119.672 180.4L122.12 180.905ZM122.45 179.413L120.013 178.854L120.013 178.854L122.45 179.413ZM123.766 173.871L121.335 173.284H121.335L123.766 173.871ZM128.623 154.137L126.197 153.533V153.533L128.623 154.137ZM143.825 94.1678L141.404 93.5437V93.5437L143.825 94.1678ZM159.793 33.8827L157.383 33.2161V33.2161L159.793 33.8827ZM165.615 13.7313L163.228 12.9874V12.9874L165.615 13.7313ZM167.578 7.86804L165.239 6.98452L165.239 6.98456L167.578 7.86804ZM168.315 6.11707L166.077 5.00433L166.077 5.00446L168.315 6.11707ZM168.698 5.453L166.645 4.02672L166.645 4.0269L168.698 5.453ZM169.615 4.65515L168.734 2.31572L168.662 2.34284L168.592 2.37434L169.615 4.65515ZM169.817 4.57898L169.069 2.19356L169.002 2.21468L168.936 2.23955L169.817 4.57898ZM170.176 4.4989L170.506 6.97701L170.517 6.97548L170.529 6.97385L170.176 4.4989ZM170.462 4.46863L170.254 1.97732L170.254 1.97732L170.462 4.46863ZM171.17 4.42664L171.058 1.92912L171.058 1.92912L171.17 4.42664ZM173.535 4.35632L173.481 1.85692H173.481L173.535 4.35632ZM182.062 4.23914L182.038 1.73925V1.73925L182.062 4.23914ZM211.861 4.08679L211.854 1.5868V1.5868L211.861 4.08679ZM408.038 25.4559L409.214 27.6623V27.6623L408.038 25.4559ZM408.021 25.4657L409.196 27.6721V27.6721L408.021 25.4657ZM407.947 25.5038L409.123 27.7102V27.7102L407.947 25.5038ZM407.66 25.6571L408.835 27.8637V27.8637L407.66 25.6571ZM406.538 26.2548L407.713 28.4616V28.4616L406.538 26.2548ZM402.277 28.5214L403.451 30.7288L402.277 28.5214ZM387.039 36.6083L388.21 38.8173L387.039 36.6083ZM340.548 61.1161L341.708 63.3305V63.3305L340.548 61.1161ZM293.375 85.5331L294.505 87.763H294.505L293.375 85.5331ZM277.302 93.4989L278.375 95.757V95.757L277.302 93.4989ZM272.538 95.6688L273.507 97.9734V97.9734L272.538 95.6688ZM271.204 96.1884L272.001 98.5578L272.002 98.5578L271.204 96.1884ZM271.102 96.2186L269.937 98.4308L270.862 98.9179L271.859 98.6012L271.102 96.2186ZM271.079 96.2079L269.904 98.4147L269.904 98.4147L271.079 96.2079ZM270.134 95.6425L268.79 97.7503V97.7503L270.134 95.6425ZM266.851 93.3905L265.398 95.4254V95.4254L266.851 93.3905ZM256.057 85.3632L254.543 87.3529V87.3529L256.057 85.3632ZM224.896 61.1405L223.349 63.1049V63.1049L224.896 61.1405ZM194.416 36.993L192.858 38.9485V38.9485L194.416 36.993ZM184.454 29.0448L182.893 30.9977L184.454 29.0448ZM181.671 26.8192L180.109 28.7711V28.7711L181.671 26.8192ZM180.938 26.2333L179.376 28.1847V28.1847L180.938 26.2333ZM180.751 26.0829L179.188 28.0341V28.0341L180.751 26.0829ZM180.704 26.0448L182.267 24.0937L182.236 24.0688L182.204 24.0448L180.704 26.0448ZM180.688 26.0331L182.188 24.0331L180.597 22.8393L179.076 24.1224L180.688 26.0331ZM179.75 27.203L177.799 25.6398L179.75 27.203ZM178.813 28.3749L177.25 30.3259L177.25 30.3259L178.813 28.3749ZM178.816 28.3768L177.253 30.3278V30.3279L178.816 28.3768ZM178.828 28.3866L177.265 30.3377V30.3377L178.828 28.3866ZM178.876 28.4247L177.313 30.3759V30.3759L178.876 28.4247ZM179.063 28.5751L177.501 30.5265L179.063 28.5751ZM179.797 29.162L178.235 31.1139V31.1139L179.797 29.162ZM182.581 31.3885L181.02 33.3415L182.581 31.3885ZM192.547 39.3397L190.989 41.2952V41.2952L192.547 39.3397ZM223.04 63.4979L221.494 65.4623V65.4623L223.04 63.4979ZM254.24 87.7499L252.727 89.7396V89.7396L254.24 87.7499ZM265.108 95.8329L263.656 97.8678V97.8678L265.108 95.8329ZM268.521 98.1718L267.176 100.28L267.176 100.28L268.521 98.1718ZM269.67 98.8563L268.495 101.063L268.495 101.063L269.67 98.8563ZM270.154 99.0887L269.199 101.399L269.199 101.399L270.154 99.0887ZM270.78 99.2626L270.477 101.744L270.477 101.744L270.78 99.2626ZM271.563 99.2059L272.12 101.643L272.12 101.643L271.563 99.2059ZM272.161 99.0321L272.958 101.402L272.959 101.402L272.161 99.0321ZM273.701 98.4344L274.67 100.739H274.67L273.701 98.4344ZM278.589 96.2079L279.662 98.466V98.466L278.589 96.2079ZM294.731 88.2098L295.862 90.4398L294.731 88.2098ZM341.94 63.7733L343.101 65.9878L341.94 63.7733ZM388.443 39.2587L389.614 41.4677L388.443 39.2587ZM403.686 31.1698L404.859 33.3773V33.3773L403.686 31.1698ZM407.948 28.9022L409.123 31.1091V31.1091L407.948 28.9022ZM409.07 28.3055L410.245 30.5121V30.5121L409.07 28.3055ZM409.358 28.1522L410.534 30.3587V30.3587L409.358 28.1522ZM409.431 28.1132L410.606 30.3195V30.3195L409.431 28.1132ZM409.449 28.1034L410.625 30.3097V30.3097L409.449 28.1034ZM409.454 28.1005L410.63 30.3068L412.392 29.3677L411.866 27.4415L409.454 28.1005ZM408.75 26.7762L410.956 25.6006L408.75 26.7762ZM408.043 25.453L406.933 23.2128L406.9 23.2292L406.867 23.2467L408.043 25.453ZM180.688 26.0321L182.639 27.5946L184.202 25.6431L182.25 24.0805L180.688 26.0321ZM178.579 26.2655L176.628 24.7023L176.628 24.7029L178.579 26.2655ZM178.812 28.3739L177.249 30.3249L179.201 31.8887L180.764 29.9364L178.812 28.3739ZM410.074 26.0712L412.281 24.8962L412.281 24.8955L410.074 26.0712ZM408.045 25.452L406.87 23.2453L404.663 24.4203L405.838 26.627L408.045 25.452ZM409.455 28.1005L407.248 29.2754L408.424 31.4828L410.631 30.3068L409.455 28.1005ZM301.526 4.04187L301.524 6.54187C334.086 6.57312 366.653 6.64298 391.208 6.7274L391.217 4.22742L391.225 1.72743C366.665 1.64299 334.094 1.57312 301.529 1.54187L301.526 4.04187ZM391.217 4.22742L391.208 6.7274C403.486 6.76961 413.76 6.81542 421.03 6.86213L421.046 4.36218L421.062 1.86223C413.785 1.81548 403.505 1.76965 391.225 1.72743L391.217 4.22742ZM421.046 4.36218L421.03 6.86213C424.665 6.88549 427.548 6.90896 429.554 6.93233L429.583 4.4325L429.612 1.93266C427.593 1.90915 424.699 1.88561 421.062 1.86223L421.046 4.36218ZM429.583 4.4325L429.554 6.93233C430.557 6.94401 431.339 6.95561 431.886 6.9671L431.938 4.46765L431.991 1.9682C431.421 1.95622 430.62 1.9444 429.612 1.93266L429.583 4.4325ZM431.938 4.46765L431.886 6.9671C432.155 6.97275 432.368 6.9789 432.52 6.98452L432.612 4.48621L432.704 1.9879C432.518 1.98106 432.278 1.97424 431.991 1.9682L431.938 4.46765ZM432.612 4.48621L432.52 6.98451C432.583 6.98682 432.628 6.9882 432.681 6.99163C432.706 6.99321 432.723 6.99468 432.732 6.99564C432.744 6.99683 432.732 6.99602 432.703 6.9909L433.133 4.5282L433.563 2.0655C433.177 1.99806 432.737 1.9891 432.704 1.9879L432.612 4.48621ZM433.133 4.5282L432.702 6.99084L434.635 7.32873L435.065 4.86609L435.496 2.40344L433.563 2.06555L433.133 4.5282ZM435.065 4.86609L432.668 4.15778L432.112 6.03864L434.51 6.74695L436.907 7.45526L437.463 5.5744L435.065 4.86609ZM434.51 6.74695L435.217 4.34918L433.54 3.85406L432.832 6.25183L432.124 8.6496L433.802 9.14472L434.51 6.74695ZM432.832 6.25183L432.122 8.64884L433.8 9.14591L434.51 6.7489L435.22 4.35189L433.542 3.85482L432.832 6.25183ZM434.51 6.7489L432.127 5.99121C432.133 5.97254 432.138 5.95766 432.141 5.94913C432.144 5.94027 432.147 5.93338 432.148 5.93043C432.148 5.92769 432.149 5.92507 432.149 5.92637C432.149 5.92667 432.148 5.9295 432.147 5.93297C432.144 5.93993 432.139 5.95423 432.133 5.97232C432.127 5.99036 432.119 6.01606 432.11 6.04707L434.508 6.75476L436.906 7.46245C436.897 7.49232 436.889 7.51687 436.883 7.5338C436.878 7.55078 436.873 7.564 436.871 7.56994C436.871 7.57154 436.87 7.57283 436.87 7.57368C436.87 7.57411 436.87 7.57445 436.869 7.57468C436.869 7.5749 436.869 7.57506 436.869 7.57507C436.869 7.57589 436.87 7.57282 436.871 7.56965C436.872 7.56627 436.875 7.55897 436.878 7.54973C436.881 7.54082 436.886 7.52558 436.892 7.50659L434.51 6.7489ZM434.508 6.75476L432.108 6.05274C432.105 6.06453 432.102 6.07438 432.1 6.08112C432.098 6.08796 432.097 6.09363 432.096 6.09714C432.095 6.10061 432.094 6.10361 432.094 6.10473C432.093 6.10607 432.094 6.10525 432.093 6.10612C432.093 6.10637 432.093 6.10634 432.093 6.10617C432.094 6.10512 432.098 6.0907 432.103 6.07147L434.501 6.77917L436.899 7.48688C436.907 7.45727 436.914 7.43331 436.917 7.42397C436.917 7.42192 436.918 7.41957 436.918 7.41946C436.918 7.41867 436.918 7.41984 436.917 7.42159C436.917 7.42338 436.916 7.42741 436.914 7.43271C436.913 7.43791 436.91 7.44632 436.907 7.45678L434.508 6.75476ZM434.501 6.77917L432.103 6.0711C432.103 6.07089 432.103 6.07256 432.101 6.07802C432.099 6.08395 432.098 6.08905 432.095 6.09863C432.09 6.11585 432.083 6.13908 432.075 6.16615L434.473 6.8739L436.87 7.58165C436.875 7.56698 436.879 7.55343 436.883 7.53902C436.885 7.53278 436.888 7.52335 436.89 7.51605C436.892 7.50829 436.895 7.49804 436.899 7.48725L434.501 6.77917ZM434.473 6.8739L432.075 6.16618C432.014 6.37393 432.047 6.26033 431.965 6.54107L434.362 7.2489L436.76 7.95673C436.785 7.87264 436.807 7.79869 436.825 7.73573C436.844 7.67186 436.859 7.62168 436.87 7.58163L434.473 6.8739ZM434.362 7.2489L431.965 6.54107C431.866 6.87428 431.723 7.35791 431.533 8.00184L433.931 8.70984L436.328 9.41784C436.516 8.78255 436.663 8.28483 436.76 7.95673L434.362 7.2489ZM433.931 8.70984L431.533 8.00184C431.155 9.28189 430.6 11.1598 429.894 13.5493L432.292 14.2577L434.69 14.9661C435.396 12.5762 435.95 10.698 436.328 9.41784L433.931 8.70984ZM432.292 14.2577L429.894 13.5493C428.482 18.3289 426.464 25.1581 424.038 33.355L426.436 34.0643L428.833 34.7736C431.258 26.576 433.277 19.7462 434.69 14.9661L432.292 14.2577ZM426.436 34.0643L424.038 33.355C419.188 49.7491 412.71 71.616 406.2 93.5061L408.597 94.2186L410.993 94.9312C417.503 73.0381 423.982 51.1689 428.833 34.7736L426.436 34.0643ZM408.597 94.2186L406.2 93.5061C399.691 115.396 393.15 137.311 388.174 153.798L390.567 154.52L392.961 155.243C397.939 138.745 404.483 116.823 410.993 94.9312L408.597 94.2186ZM390.567 154.52L388.174 153.798C385.686 162.042 383.59 168.928 382.085 173.776L384.473 174.517L386.86 175.259C388.372 170.391 390.472 163.489 392.961 155.243L390.567 154.52ZM384.473 174.517L382.085 173.776C381.332 176.2 380.728 178.112 380.297 179.428L382.673 180.206L385.049 180.984C385.492 179.631 386.105 177.689 386.86 175.259L384.473 174.517ZM382.673 180.206L380.297 179.428C380.082 180.086 379.911 180.59 379.787 180.933L382.14 181.779L384.492 182.626C384.64 182.214 384.829 181.656 385.049 180.984L382.673 180.206ZM382.14 181.779L379.787 180.933C379.724 181.11 379.678 181.23 379.646 181.306L381.952 182.271L384.258 183.237C384.341 183.039 384.422 182.819 384.492 182.626L382.14 181.779ZM381.952 182.271L379.646 181.306C379.637 181.327 379.631 181.342 379.626 181.353C379.62 181.365 379.619 181.368 379.621 181.363L381.842 182.512L384.062 183.66C384.155 183.481 384.223 183.32 384.258 183.237L381.952 182.271ZM381.842 182.512L379.621 181.363C379.623 181.359 379.626 181.354 379.629 181.349C379.631 181.345 379.636 181.337 379.643 181.327L381.729 182.705L383.814 184.083C383.932 183.906 384.015 183.752 384.062 183.66L381.842 182.512ZM381.729 182.705L379.643 181.327C379.633 181.341 379.644 181.324 379.656 181.308C379.666 181.294 379.677 181.279 379.689 181.265C379.71 181.24 379.746 181.201 379.802 181.159L381.31 183.153L382.817 185.147C383.126 184.914 383.357 184.672 383.518 184.481C383.599 184.384 383.666 184.295 383.719 184.223C383.745 184.186 383.767 184.154 383.785 184.127C383.801 184.103 383.817 184.079 383.814 184.083L381.729 182.705ZM381.31 183.153L379.802 181.159C379.872 181.106 379.928 181.081 379.959 181.068C379.978 181.061 379.999 181.054 380.023 181.046C380.035 181.043 380.048 181.039 380.061 181.036C380.067 181.034 380.073 181.032 380.076 181.032C380.077 181.031 380.079 181.031 380.075 181.032C380.074 181.032 380.07 181.033 380.066 181.034C380.063 181.035 380.052 181.038 380.038 181.041L380.683 183.457L381.327 185.872C381.322 185.874 381.543 185.82 381.819 185.709C382.084 185.603 382.445 185.429 382.817 185.148L381.31 183.153ZM380.683 183.457L380.039 181.041C380.05 181.038 380.057 181.037 380.06 181.036C380.064 181.035 380.068 181.035 380.07 181.034L380.466 183.503L380.862 185.971C380.956 185.956 381.125 185.926 381.326 185.873L380.683 183.457ZM380.466 183.503L380.07 181.034C380.068 181.035 380.059 181.036 380.04 181.038C380.022 181.04 380.001 181.042 379.975 181.045L380.193 183.535L380.412 186.025C380.512 186.017 380.678 186.001 380.862 185.971L380.466 183.503ZM380.193 183.535L379.975 181.045C379.865 181.054 379.697 181.064 379.465 181.075L379.576 183.572L379.687 186.07C379.938 186.059 380.193 186.045 380.412 186.025L380.193 183.535ZM379.576 183.572L379.465 181.075C379.006 181.095 378.333 181.114 377.457 181.132L377.508 183.632L377.559 186.131C378.446 186.113 379.167 186.093 379.687 186.07L379.576 183.572ZM377.508 183.632L377.457 181.132C375.705 181.168 373.159 181.199 369.923 181.225L369.943 183.724L369.963 186.224C373.204 186.199 375.775 186.168 377.559 186.131L377.508 183.632ZM369.943 183.724L369.923 181.225C363.453 181.276 354.236 181.308 343.127 181.325L343.131 183.825L343.135 186.325C354.246 186.308 363.476 186.276 369.963 186.224L369.943 183.724ZM343.131 183.825L343.127 181.325C320.909 181.36 291.129 181.335 260.629 181.287L260.625 183.787L260.621 186.287C291.122 186.335 320.909 186.36 343.135 186.325L343.131 183.825ZM260.625 183.787L260.629 181.287C199.632 181.191 135.754 181.002 123.754 181.008L123.755 183.508L123.756 186.008C135.752 186.002 199.606 186.191 260.621 186.287L260.625 183.787ZM123.755 183.508L124.183 181.045C124.251 181.056 124.295 181.07 124.311 181.075C124.329 181.081 124.332 181.083 124.321 181.079C124.297 181.067 124.251 181.043 124.196 181.007C124.141 180.97 124.106 180.941 124.098 180.934C124.095 180.931 124.109 180.944 124.137 180.974C124.151 180.99 124.172 181.015 124.198 181.048C124.223 181.081 124.259 181.13 124.298 181.193L122.175 182.513L120.051 183.832C120.441 184.46 121.056 184.925 121.439 185.178C121.867 185.461 122.546 185.835 123.327 185.971L123.755 183.508ZM122.175 182.513L124.483 181.553C124.49 181.57 124.494 181.581 124.495 181.583C124.496 181.586 124.496 181.585 124.494 181.579C124.492 181.574 124.49 181.567 124.487 181.558C124.484 181.548 124.481 181.539 124.479 181.529C124.476 181.519 124.473 181.509 124.471 181.502C124.469 181.494 124.468 181.489 124.468 181.488C124.467 181.486 124.469 181.492 124.471 181.504C124.473 181.51 124.475 181.52 124.477 181.534C124.479 181.546 124.482 181.566 124.486 181.591L122.012 181.948L119.537 182.305C119.585 182.633 119.72 183.119 119.866 183.472L122.175 182.513ZM122.012 181.948L124.496 181.664C124.5 181.702 124.5 181.728 124.5 181.743C124.5 181.752 124.5 181.761 124.499 181.769C124.499 181.778 124.498 181.787 124.499 181.777L122.005 181.605L119.511 181.434C119.506 181.506 119.482 181.829 119.528 182.232L122.012 181.948ZM122.005 181.605L124.499 181.777C124.499 181.784 124.498 181.788 124.498 181.788C124.498 181.788 124.498 181.787 124.499 181.783C124.5 181.776 124.501 181.767 124.504 181.75L122.035 181.354L119.567 180.959C119.556 181.026 119.526 181.213 119.511 181.434L122.005 181.605ZM122.035 181.354L124.504 181.75C124.515 181.682 124.536 181.569 124.569 181.41L122.12 180.905L119.672 180.4C119.634 180.581 119.595 180.78 119.567 180.959L122.035 181.354ZM122.12 180.905L124.569 181.41C124.635 181.089 124.742 180.606 124.887 179.972L122.45 179.413L120.013 178.854C119.865 179.499 119.749 180.024 119.672 180.4L122.12 180.905ZM122.45 179.413L124.887 179.972C125.178 178.702 125.621 176.836 126.196 174.458L123.766 173.871L121.335 173.284C120.76 175.667 120.311 177.556 120.013 178.854L122.45 179.413ZM123.766 173.871L126.196 174.458C127.344 169.702 129.017 162.904 131.049 154.741L128.623 154.137L126.197 153.533C124.164 161.701 122.488 168.512 121.335 173.284L123.766 173.871ZM128.623 154.137L131.049 154.741C135.113 138.414 140.616 116.628 146.246 94.792L143.825 94.1678L141.404 93.5437C135.771 115.394 130.265 137.193 126.197 153.533L128.623 154.137ZM143.825 94.1678L146.246 94.792C151.876 72.9552 157.632 51.0714 162.202 34.5493L159.793 33.8827L157.383 33.2161C152.801 49.781 147.037 71.6982 141.404 93.5437L143.825 94.1678ZM159.793 33.8827L162.202 34.5493C164.488 26.2872 166.476 19.3718 168.002 14.4753L165.615 13.7313L163.228 12.9874C161.678 17.9627 159.673 24.9404 157.383 33.2161L159.793 33.8827ZM165.615 13.7313L168.002 14.4753C168.766 12.0256 169.41 10.0921 169.917 8.75153L167.578 7.86804L165.239 6.98456C164.68 8.4651 164.001 10.5104 163.228 12.9874L165.615 13.7313ZM167.578 7.86804L169.917 8.75156C170.171 8.07928 170.384 7.57234 170.554 7.22967L168.315 6.11707L166.077 5.00446C165.796 5.56911 165.514 6.25723 165.239 6.98452L167.578 7.86804ZM168.315 6.11707L170.554 7.2298C170.639 7.05904 170.705 6.94547 170.752 6.87911L168.698 5.453L166.645 4.0269C166.403 4.37471 166.214 4.72841 166.077 5.00433L168.315 6.11707ZM168.698 5.453L170.751 6.87928C170.771 6.85119 170.771 6.85097 170.773 6.8494C170.774 6.84757 170.773 6.84877 170.77 6.85239C170.766 6.85576 170.756 6.86605 170.737 6.88014C170.717 6.89451 170.685 6.91546 170.639 6.93597L169.615 4.65515L168.592 2.37434C167.39 2.91341 166.763 3.85731 166.645 4.02672L168.698 5.453ZM169.615 4.65515L170.497 6.99458L170.699 6.91841L169.817 4.57898L168.936 2.23955L168.734 2.31572L169.615 4.65515ZM169.817 4.57898L170.566 6.9644C170.557 6.96713 170.551 6.96873 170.547 6.96963C170.543 6.97056 170.539 6.97138 170.535 6.97223C170.53 6.97312 170.524 6.97428 170.515 6.97568C170.51 6.97641 170.505 6.97713 170.5 6.97783C170.497 6.97818 170.495 6.97845 170.494 6.97858C170.494 6.97859 170.493 6.97866 170.495 6.97846C170.495 6.9784 170.497 6.97823 170.498 6.97804C170.5 6.97785 170.502 6.97748 170.506 6.97701L170.176 4.4989L169.846 2.02079C169.858 2.01911 169.814 2.02471 169.767 2.03192C169.719 2.0392 169.659 2.04908 169.59 2.06229C169.456 2.08819 169.274 2.12917 169.069 2.19356L169.817 4.57898ZM170.176 4.4989L170.529 6.97385C170.534 6.97317 170.548 6.97134 170.574 6.96866C170.6 6.966 170.63 6.96326 170.67 6.95993L170.462 4.46863L170.254 1.97732C170.156 1.98544 169.994 1.99947 169.823 2.02395L170.176 4.4989ZM170.462 4.46863L170.67 6.95994C170.81 6.94825 171.014 6.93611 171.281 6.92415L171.17 4.42664L171.058 1.92912C170.765 1.94221 170.488 1.95774 170.254 1.97732L170.462 4.46863ZM171.17 4.42664L171.281 6.92415C171.818 6.90021 172.591 6.87753 173.59 6.85573L173.535 4.35632L173.481 1.85692C172.472 1.87893 171.653 1.90257 171.058 1.92912L171.17 4.42664ZM173.535 4.35632L173.59 6.85573C175.585 6.81218 178.458 6.77312 182.085 6.73903L182.062 4.23914L182.038 1.73925C178.405 1.77339 175.507 1.81268 173.481 1.85692L173.535 4.35632ZM182.062 4.23914L182.085 6.73903C189.339 6.67085 199.6 6.62118 211.868 6.58678L211.861 4.08679L211.854 1.5868C199.584 1.62121 189.309 1.67091 182.038 1.73925L182.062 4.23914ZM211.861 4.08679L211.868 6.58678C236.404 6.51798 268.962 6.51062 301.524 6.54187L301.526 4.04187L301.529 1.54187C268.964 1.51062 236.399 1.51798 211.854 1.5868L211.861 4.08679ZM408.038 25.4559L406.862 23.2496C406.848 23.2572 406.836 23.2638 406.828 23.2685C406.819 23.2732 406.812 23.2771 406.808 23.2796C406.803 23.2821 406.8 23.2841 406.799 23.2848C406.798 23.285 406.798 23.2852 406.798 23.2853C406.797 23.2855 406.797 23.2855 406.797 23.2856C406.797 23.2857 406.797 23.2856 406.797 23.2854C406.801 23.2836 406.82 23.2728 406.845 23.2593L408.021 25.4657L409.196 27.6721C409.229 27.6545 409.255 27.6399 409.264 27.6347C409.265 27.6341 409.266 27.6336 409.266 27.6333C409.267 27.6332 409.267 27.633 409.267 27.633C409.267 27.6329 409.267 27.6329 409.267 27.633C409.267 27.633 409.266 27.6333 409.266 27.6338C409.265 27.6343 409.263 27.635 409.262 27.636C409.259 27.6378 409.253 27.641 409.245 27.6451C409.238 27.6492 409.227 27.6552 409.214 27.6623L408.038 25.4559ZM408.021 25.4657L406.845 23.2593C406.856 23.2535 406.863 23.2499 406.861 23.2509C406.858 23.2525 406.858 23.2524 406.848 23.2578C406.832 23.266 406.804 23.28 406.772 23.2973L407.947 25.5038L409.123 27.7102C409.122 27.7104 409.124 27.7097 409.132 27.7053C409.134 27.7044 409.145 27.6986 409.152 27.6949C409.161 27.6906 409.177 27.6822 409.196 27.6721L408.021 25.4657ZM407.947 25.5038L406.772 23.2973C406.638 23.3688 406.672 23.3508 406.485 23.4505L407.66 25.6571L408.835 27.8637C408.901 27.829 408.958 27.7985 409.006 27.7726C409.055 27.7462 409.093 27.7262 409.123 27.7102L407.947 25.5038ZM407.66 25.6571L406.485 23.4505C406.23 23.5865 405.855 23.7864 405.363 24.0479L406.538 26.2548L407.713 28.4616C408.204 28.2 408.583 27.998 408.835 27.8637L407.66 25.6571ZM406.538 26.2548L405.363 24.0479C404.381 24.571 402.94 25.3381 401.104 26.3139L402.277 28.5214L403.451 30.7288C405.288 29.7524 406.73 28.9847 407.713 28.4616L406.538 26.2548ZM402.277 28.5214L401.104 26.3139C397.432 28.266 392.181 31.0545 385.869 34.3992L387.039 36.6083L388.21 38.8173C394.524 35.4714 399.777 32.6819 403.451 30.7288L402.277 28.5214ZM387.039 36.6083L385.869 34.3992C373.243 41.0889 356.372 50.0025 339.388 58.9016L340.548 61.1161L341.708 63.3305C358.702 54.4266 375.58 45.5092 388.21 38.8173L387.039 36.6083ZM340.548 61.1161L339.388 58.9016C322.4 67.8025 305.311 76.6809 292.245 83.3031L293.375 85.5331L294.505 87.763C307.602 81.1251 324.715 72.234 341.708 63.3305L340.548 61.1161ZM293.375 85.5331L292.245 83.3031C285.707 86.6166 280.202 89.3529 276.229 91.2408L277.302 93.4989L278.375 95.757C282.407 93.8409 287.958 91.0813 294.505 87.763L293.375 85.5331ZM277.302 93.4989L276.229 91.2408C274.236 92.1878 272.67 92.9013 271.569 93.3643L272.538 95.6688L273.507 97.9734C274.714 97.4661 276.36 96.7143 278.375 95.757L277.302 93.4989ZM272.538 95.6688L271.569 93.3643C271.014 93.5978 270.634 93.7423 270.407 93.8189L271.204 96.1884L272.002 98.5578C272.396 98.4249 272.903 98.2273 273.507 97.9734L272.538 95.6688ZM271.204 96.1884L270.407 93.8189C270.432 93.8103 270.452 93.8042 270.465 93.8006C270.476 93.7972 270.483 93.7952 270.479 93.7965C270.478 93.7968 270.476 93.7971 270.474 93.7977C270.473 93.7982 270.47 93.799 270.467 93.7998C270.461 93.8014 270.452 93.804 270.441 93.807C270.421 93.8128 270.386 93.8229 270.344 93.8361L271.102 96.2186L271.859 98.6012C271.833 98.6095 271.814 98.6149 271.81 98.6161C271.807 98.6168 271.806 98.617 271.809 98.6163C271.81 98.6159 271.811 98.6156 271.814 98.6149C271.816 98.6143 271.819 98.6134 271.822 98.6125C271.846 98.606 271.917 98.5863 272.001 98.5578L271.204 96.1884ZM271.102 96.2186L272.266 94.0064C272.242 93.994 272.221 93.9834 272.204 93.9747C272.186 93.966 272.171 93.9588 272.159 93.9533C272.148 93.9479 272.138 93.9435 272.133 93.9409C272.13 93.9396 272.127 93.9385 272.126 93.9378C272.125 93.9375 272.124 93.9372 272.124 93.937C272.124 93.9369 272.124 93.9368 272.124 93.9368C272.123 93.9367 272.123 93.9367 272.123 93.9367C272.123 93.9363 272.126 93.938 272.131 93.9403C272.136 93.9427 272.145 93.9467 272.156 93.9518C272.167 93.9569 272.181 93.9636 272.197 93.9717C272.213 93.9799 272.232 93.9896 272.254 94.0011L271.079 96.2079L269.904 98.4147C269.95 98.4392 269.989 98.4579 270.014 98.4697C270.026 98.4757 270.037 98.4805 270.044 98.4838C270.051 98.4869 270.056 98.4895 270.058 98.49C270.06 98.4912 270.057 98.4898 270.054 98.4884C270.05 98.4866 270.043 98.4831 270.033 98.4786C270.014 98.4698 269.98 98.4533 269.937 98.4308L271.102 96.2186ZM271.079 96.2079L272.254 94.0011C272.113 93.9259 271.861 93.7791 271.478 93.5346L270.134 95.6425L268.79 97.7503C269.221 98.0256 269.597 98.251 269.904 98.4147L271.079 96.2079ZM270.134 95.6425L271.478 93.5346C270.721 93.0521 269.657 92.3223 268.303 91.3556L266.851 93.3905L265.398 95.4254C266.776 96.4089 267.923 97.1978 268.79 97.7503L270.134 95.6425ZM266.851 93.3905L268.303 91.3556C265.606 89.431 261.923 86.6846 257.57 83.3735L256.057 85.3632L254.543 87.3529C258.907 90.673 262.639 93.4559 265.398 95.4254L266.851 93.3905ZM256.057 85.3632L257.57 83.3735C248.873 76.7568 237.607 67.9657 226.442 59.1761L224.896 61.1405L223.349 63.1049C234.52 71.8988 245.812 80.7105 254.543 87.3529L256.057 85.3632ZM224.896 61.1405L226.442 59.1761C215.28 50.3895 204.232 41.6155 195.974 35.0375L194.416 36.993L192.858 38.9485C201.121 45.5299 212.177 54.3103 223.349 63.1049L224.896 61.1405ZM194.416 36.993L195.974 35.0375C191.845 31.7489 188.414 29.009 186.015 27.0919L184.454 29.0448L182.893 30.9977C185.294 32.9161 188.727 35.6577 192.858 38.9485L194.416 36.993ZM184.454 29.0448L186.015 27.0919C184.815 26.1332 183.874 25.3804 183.233 24.8673L181.671 26.8192L180.109 28.7711C180.751 29.285 181.693 30.0386 182.893 30.9977L184.454 29.0448ZM181.671 26.8192L183.233 24.8673C182.909 24.6082 182.667 24.4149 182.501 24.2819L180.938 26.2333L179.376 28.1847C179.541 28.3168 179.791 28.5169 180.109 28.7711L181.671 26.8192ZM180.938 26.2333L182.501 24.2819C182.401 24.2013 182.379 24.1841 182.314 24.1317L180.751 26.0829L179.188 28.0341C179.207 28.0489 179.311 28.1328 179.376 28.1847L180.938 26.2333ZM180.751 26.0829L182.314 24.1317C182.314 24.1314 182.312 24.1304 182.307 24.1259C182.306 24.1249 182.299 24.1191 182.294 24.1155C182.289 24.1112 182.279 24.1031 182.267 24.0937L180.704 26.0448L179.141 27.9959C179.135 27.9907 179.13 27.9873 179.132 27.9884C179.134 27.9901 179.134 27.9902 179.14 27.9956C179.151 28.0038 179.167 28.0176 179.188 28.0341L180.751 26.0829ZM180.704 26.0448L182.204 24.0448L182.188 24.0331L180.688 26.0331L179.188 28.0331L179.204 28.0448L180.704 26.0448ZM180.688 26.0331L179.076 24.1224C178.959 24.2217 178.876 24.3107 178.86 24.3281C178.83 24.3603 178.807 24.3864 178.797 24.3979C178.777 24.4219 178.76 24.4417 178.755 24.4475C178.743 24.4627 178.73 24.4786 178.721 24.4903C178.699 24.517 178.663 24.5622 178.601 24.6385C178.478 24.7926 178.243 25.0852 177.799 25.6398L179.75 27.203L181.701 28.7662C182.146 28.2111 182.379 27.9199 182.502 27.7672C182.564 27.69 182.595 27.651 182.611 27.6315C182.62 27.6201 182.618 27.6224 182.612 27.6296C182.611 27.6314 182.596 27.6487 182.577 27.671C182.568 27.6817 182.546 27.7072 182.516 27.7389C182.5 27.7559 182.418 27.8446 182.301 27.9437L180.688 26.0331ZM179.75 27.203L177.799 25.6398C177.33 26.2249 177.094 26.5195 176.976 26.6683C176.918 26.7408 176.883 26.7845 176.862 26.8114C176.857 26.8172 176.832 26.8491 176.806 26.8846C176.798 26.8957 176.782 26.9175 176.762 26.9454C176.749 26.9646 176.703 27.0307 176.651 27.1195C176.625 27.1642 176.576 27.2515 176.526 27.3669C176.483 27.4631 176.383 27.7037 176.337 28.0307C176.285 28.4035 176.296 28.9728 176.613 29.5607C176.757 29.829 176.924 30.022 177.051 30.1477C177.112 30.2083 177.164 30.2543 177.197 30.2822C177.21 30.2931 177.23 30.3092 177.236 30.3147C177.243 30.3201 177.25 30.3257 177.25 30.3259L178.813 28.3749L180.377 26.4239C180.377 26.4241 180.384 26.4297 180.391 26.4351C180.397 26.4405 180.417 26.4567 180.43 26.4675C180.463 26.4954 180.515 26.5414 180.576 26.602C180.703 26.7277 180.87 26.9207 181.014 27.189C181.331 27.7769 181.341 28.3461 181.29 28.7189C181.244 29.0458 181.144 29.2864 181.101 29.3825C181.051 29.4977 181.002 29.5849 180.976 29.6294C180.924 29.718 180.879 29.7836 180.866 29.8021C180.847 29.8293 180.831 29.8503 180.824 29.8602C180.801 29.891 180.783 29.9135 180.793 29.901C180.801 29.8909 180.825 29.8612 180.884 29.7871C180.999 29.6427 181.232 29.3517 181.701 28.7662L179.75 27.203ZM178.813 28.3749L177.25 30.3259C177.28 30.35 177.308 30.3708 177.331 30.3881C177.355 30.4054 177.376 30.4203 177.394 30.4326C177.412 30.445 177.427 30.4556 177.441 30.4642C177.454 30.4729 177.465 30.4803 177.474 30.4861C177.484 30.4919 177.491 30.4968 177.497 30.5003C177.503 30.5038 177.507 30.5066 177.51 30.5082C177.511 30.509 177.512 30.5097 177.513 30.5101C177.513 30.5103 177.514 30.5105 177.514 30.5106C177.514 30.5106 177.514 30.5107 177.514 30.5107C177.514 30.5107 177.514 30.5108 177.514 30.5108C177.515 30.511 177.513 30.5099 177.511 30.5086C177.506 30.5059 177.496 30.4995 177.483 30.4912C177.469 30.4827 177.451 30.4709 177.429 30.4566C177.408 30.4422 177.382 30.4243 177.352 30.4033C177.323 30.3822 177.29 30.357 177.253 30.3278L178.816 28.3768L180.38 26.4258C180.343 26.3964 180.309 26.3711 180.28 26.3498C180.25 26.3285 180.224 26.3105 180.202 26.2959C180.18 26.2814 180.162 26.2695 180.148 26.2608C180.134 26.2523 180.124 26.2457 180.119 26.2429C180.118 26.2421 180.117 26.2415 180.116 26.2411C180.116 26.2409 180.115 26.2407 180.115 26.2406C180.115 26.2406 180.115 26.2405 180.115 26.2405C180.115 26.2405 180.115 26.2405 180.115 26.2405C180.115 26.2402 180.117 26.2414 180.119 26.2428C180.121 26.2443 180.126 26.2471 180.131 26.2505C180.137 26.254 180.145 26.2587 180.154 26.2645C180.163 26.2702 180.174 26.2775 180.187 26.2861C180.2 26.2947 180.216 26.3053 180.234 26.3175C180.252 26.3298 180.273 26.3447 180.296 26.3619C180.319 26.3791 180.347 26.3998 180.377 26.4239L178.813 28.3749ZM178.816 28.3768L177.253 30.3279C177.24 30.3172 177.229 30.3084 177.222 30.3024C177.215 30.2963 177.209 30.2915 177.206 30.2888C177.203 30.2862 177.2 30.2842 177.2 30.2841C177.2 30.284 177.2 30.284 177.2 30.2841C177.2 30.2841 177.2 30.2841 177.2 30.2842C177.2 30.2842 177.2 30.2843 177.201 30.2844C177.201 30.2847 177.202 30.2854 177.203 30.2862C177.21 30.2927 177.234 30.313 177.265 30.3377L178.828 28.3866L180.391 26.4355C180.417 26.4561 180.436 26.4725 180.44 26.4757C180.44 26.4761 180.441 26.4764 180.441 26.4763C180.441 26.4762 180.441 26.4762 180.44 26.476C180.44 26.4759 180.44 26.4757 180.44 26.4754C180.439 26.4746 180.435 26.4719 180.432 26.4685C180.428 26.4652 180.421 26.4597 180.413 26.453C180.405 26.4464 180.393 26.437 180.38 26.4258L178.816 28.3768ZM178.828 28.3866L177.265 30.3377C177.272 30.3431 177.278 30.3481 177.282 30.3515C177.286 30.3546 177.292 30.3588 177.294 30.361C177.301 30.3666 177.307 30.3711 177.313 30.3759L178.876 28.4247L180.439 26.4735C180.424 26.4614 180.411 26.4512 180.402 26.444C180.397 26.4399 180.395 26.4382 180.392 26.4361C180.389 26.4341 180.39 26.4343 180.391 26.4355L178.828 28.3866ZM178.876 28.4247L177.313 30.3759C177.332 30.3908 177.436 30.4746 177.501 30.5265L179.063 28.5751L180.626 26.6237C180.525 26.543 180.505 26.5261 180.439 26.4735L178.876 28.4247ZM179.063 28.5751L177.501 30.5265C177.667 30.6595 177.915 30.8577 178.235 31.1139L179.797 29.162L181.359 27.2101C181.037 26.9524 180.792 26.7562 180.626 26.6237L179.063 28.5751ZM179.797 29.162L178.235 31.1139C178.877 31.6281 179.82 32.382 181.02 33.3415L182.581 31.3885L184.142 29.4356C182.942 28.4769 182.001 27.7236 181.359 27.2101L179.797 29.162ZM182.581 31.3885L181.02 33.3415C183.422 35.2608 186.856 38.0033 190.989 41.2952L192.547 39.3397L194.104 37.3842C189.974 34.0943 186.542 31.3536 184.142 29.4356L182.581 31.3885ZM192.547 39.3397L190.989 41.2952C199.255 47.8786 210.316 56.6629 221.494 65.4623L223.04 63.4979L224.586 61.5336C213.418 52.7421 202.365 43.9642 194.104 37.3842L192.547 39.3397ZM223.04 63.4979L221.494 65.4623C232.668 74.2589 243.975 83.0819 252.727 89.7396L254.24 87.7499L255.754 85.7602C247.036 79.1281 235.755 70.3256 224.586 61.5336L223.04 63.4979ZM254.24 87.7499L252.727 89.7396C257.098 93.0651 260.858 95.8712 263.656 97.8678L265.108 95.8329L266.561 93.798C263.826 91.8464 260.114 89.0772 255.754 85.7602L254.24 87.7499ZM265.108 95.8329L263.656 97.8678C265.049 98.8616 266.244 99.6853 267.176 100.28L268.521 98.1718L269.865 96.0639C269.042 95.5395 267.929 94.7749 266.561 93.798L265.108 95.8329ZM268.521 98.1718L267.176 100.28C267.637 100.574 268.088 100.847 268.495 101.063L269.67 98.8563L270.845 96.6495C270.604 96.5212 270.277 96.3268 269.865 96.0639L268.521 98.1718ZM269.67 98.8563L268.495 101.063C268.698 101.171 268.939 101.292 269.199 101.399L270.154 99.0887L271.109 96.7784C271.052 96.7546 270.965 96.7135 270.845 96.6495L269.67 98.8563ZM270.154 99.0887L269.199 101.399C269.409 101.486 269.883 101.671 270.477 101.744L270.78 99.2626L271.083 96.781C271.108 96.784 271.124 96.7873 271.133 96.7894C271.143 96.7914 271.147 96.7928 271.147 96.7926C271.146 96.7925 271.143 96.7915 271.137 96.7892C271.13 96.7868 271.122 96.7835 271.109 96.7783L270.154 99.0887ZM270.78 99.2626L270.477 101.744C271.266 101.84 271.93 101.687 272.12 101.643L271.563 99.2059L271.007 96.7686C270.97 96.777 270.965 96.7773 270.967 96.7771C270.969 96.7769 270.978 96.7758 270.996 96.7756C271.012 96.7754 271.042 96.776 271.083 96.781L270.78 99.2626ZM271.563 99.2059L272.12 101.643C272.423 101.574 272.714 101.484 272.958 101.402L272.161 99.0321L271.364 96.6627C271.198 96.7185 271.082 96.7516 271.007 96.7686L271.563 99.2059ZM272.161 99.0321L272.959 101.402C273.456 101.234 274.041 101.004 274.67 100.739L273.701 98.4344L272.732 96.1299C272.15 96.3749 271.693 96.5519 271.364 96.6627L272.161 99.0321ZM273.701 98.4344L274.67 100.739C275.941 100.205 277.635 99.4288 279.662 98.466L278.589 96.2079L277.516 93.9498C275.509 94.9034 273.896 95.6405 272.732 96.1299L273.701 98.4344ZM278.589 96.2079L279.662 98.466C283.729 96.5332 289.308 93.7615 295.862 90.4398L294.731 88.2098L293.601 85.9799C287.058 89.2962 281.525 92.0449 277.516 93.9498L278.589 96.2079ZM294.731 88.2098L295.862 90.4398C308.978 83.7923 326.105 74.8928 343.101 65.9878L341.94 63.7733L340.78 61.5589C323.789 70.4614 306.686 79.3482 293.601 85.9799L294.731 88.2098ZM341.94 63.7733L343.101 65.9878C360.1 57.0809 376.982 48.1607 389.614 41.4677L388.443 39.2587L387.273 37.0496C374.645 43.7406 357.77 52.6569 340.78 61.5589L341.94 63.7733ZM388.443 39.2587L389.614 41.4677C395.93 38.1211 401.184 35.3308 404.859 33.3773L403.686 31.1698L402.512 28.9623C398.839 30.915 393.587 33.7042 387.273 37.0496L388.443 39.2587ZM403.686 31.1698L404.859 33.3773C406.697 32.4005 408.14 31.6324 409.123 31.1091L407.948 28.9022L406.774 26.6954C405.791 27.2186 404.348 27.9861 402.512 28.9623L403.686 31.1698ZM407.948 28.9022L409.123 31.1091C409.605 30.8522 409.996 30.645 410.245 30.5121L409.07 28.3055L407.895 26.099C407.637 26.2365 407.274 26.4292 406.774 26.6954L407.948 28.9022ZM409.07 28.3055L410.245 30.5121C410.364 30.4488 410.474 30.3903 410.534 30.3587L409.358 28.1522L408.183 25.9458C408.113 25.9829 408.03 26.027 407.895 26.099L409.07 28.3055ZM409.358 28.1522L410.534 30.3587C410.56 30.3448 410.582 30.333 410.596 30.3252C410.605 30.3205 410.607 30.3193 410.61 30.3173C410.614 30.3156 410.611 30.3169 410.606 30.3195L409.431 28.1132L408.255 25.9068C408.242 25.9137 408.231 25.92 408.224 25.9237C408.217 25.9271 408.208 25.932 408.205 25.9339C408.195 25.9392 408.189 25.9426 408.183 25.9458L409.358 28.1522ZM409.431 28.1132L410.606 30.3195C410.602 30.3218 410.599 30.3234 410.6 30.3227C410.601 30.3224 410.601 30.3223 410.602 30.3217C410.603 30.3212 410.605 30.3204 410.606 30.3195C410.608 30.3186 410.611 30.3173 410.613 30.3158C410.616 30.3143 410.62 30.3122 410.625 30.3097L409.449 28.1034L408.274 25.8971C408.277 25.8951 408.28 25.8936 408.282 25.8927C408.284 25.8918 408.285 25.8912 408.285 25.8909C408.286 25.8907 408.286 25.8906 408.285 25.8909C408.285 25.8911 408.284 25.8918 408.283 25.8923C408.278 25.8948 408.268 25.9002 408.255 25.9068L409.431 28.1132ZM409.449 28.1034L410.625 30.3097C410.648 30.2974 410.669 30.2859 410.686 30.2758C410.704 30.2656 410.72 30.2563 410.733 30.2484C410.747 30.2405 410.758 30.2336 410.767 30.2283C410.775 30.2229 410.782 30.2186 410.786 30.2162C410.788 30.215 410.789 30.2141 410.79 30.2137C410.79 30.2136 410.79 30.2134 410.79 30.2135C410.79 30.2135 410.79 30.2137 410.789 30.2139C410.789 30.2144 410.787 30.2156 410.784 30.2172C410.782 30.2188 410.778 30.2212 410.773 30.2242C410.768 30.2271 410.762 30.2309 410.755 30.2354C410.747 30.2399 410.738 30.2456 410.727 30.252C410.716 30.2584 410.703 30.2663 410.687 30.2752C410.672 30.284 410.652 30.2948 410.63 30.3068L409.454 28.1005L408.278 25.8941C408.256 25.9062 408.236 25.9171 408.221 25.926C408.205 25.9349 408.191 25.9429 408.18 25.9494C408.169 25.9559 408.16 25.9617 408.152 25.9663C408.145 25.9709 408.138 25.9748 408.133 25.9778C408.128 25.9809 408.124 25.9834 408.122 25.9851C408.119 25.9868 408.117 25.9882 408.116 25.9888C408.115 25.9891 408.115 25.9893 408.115 25.9894C408.115 25.9896 408.115 25.9894 408.115 25.9893C408.115 25.9891 408.117 25.9883 408.118 25.9872C408.122 25.9851 408.128 25.9811 408.136 25.976C408.144 25.9709 408.155 25.9643 408.168 25.9567C408.181 25.9491 408.196 25.9401 408.213 25.9302C408.231 25.9203 408.251 25.9091 408.274 25.8971L409.449 28.1034ZM409.454 28.1005L411.866 27.4415C411.823 27.2845 411.774 27.1669 411.761 27.136C411.741 27.0887 411.724 27.0519 411.716 27.0345C411.699 26.999 411.685 26.9708 411.68 26.9621C411.669 26.9401 411.658 26.9184 411.65 26.9043C411.633 26.8715 411.605 26.8182 411.559 26.7315C411.465 26.5556 411.289 26.2244 410.956 25.6006L408.75 26.7762L406.544 27.9519C406.877 28.5765 407.052 28.9051 407.143 29.0782C407.19 29.1659 407.213 29.2092 407.224 29.2301C407.231 29.2428 407.228 29.2372 407.221 29.2248C407.219 29.2209 407.207 29.196 407.191 29.1626C407.183 29.1463 407.167 29.1103 407.147 29.0636C407.134 29.0333 407.085 28.9161 407.043 28.7595L409.454 28.1005ZM408.75 26.7762L410.956 25.6006C410.606 24.9423 410.428 24.6096 410.338 24.4414C410.294 24.3598 410.268 24.3097 410.251 24.2792C410.248 24.2732 410.227 24.2346 410.203 24.1934C410.195 24.1804 410.18 24.1554 410.161 24.1245C410.147 24.102 410.103 24.032 410.039 23.9476C410.03 23.9357 409.798 23.6053 409.381 23.3413C409.117 23.1739 408.675 22.965 408.092 22.9535C407.508 22.942 407.083 23.1384 406.933 23.2128L408.043 25.453L409.153 27.6932C409.003 27.7676 408.578 27.964 407.994 27.9525C407.411 27.941 406.969 27.7321 406.705 27.5648C406.459 27.4092 406.297 27.2454 406.223 27.1673C406.14 27.0787 406.08 27.002 406.048 26.9591C405.984 26.875 405.94 26.8054 405.927 26.7837C405.908 26.7536 405.894 26.7296 405.887 26.7179C405.866 26.6822 405.851 26.6543 405.859 26.6693C405.866 26.681 405.884 26.7148 405.929 26.7993C406.017 26.9635 406.192 27.2927 406.544 27.9519L408.75 26.7762ZM408.043 25.453L406.867 23.2467C406.845 23.2588 406.825 23.2697 406.809 23.2786C406.793 23.2875 406.78 23.2955 406.769 23.302C406.758 23.3085 406.749 23.3142 406.741 23.3187C406.734 23.3233 406.727 23.3272 406.722 23.3302C406.718 23.3332 406.714 23.3357 406.711 23.3374C406.708 23.3391 406.706 23.3404 406.705 23.341C406.705 23.3413 406.704 23.3416 406.704 23.3417C406.704 23.3418 406.704 23.3417 406.704 23.3416C406.705 23.3414 406.706 23.3406 406.708 23.3395C406.711 23.3374 406.717 23.3334 406.725 23.3284C406.733 23.3234 406.744 23.3168 406.757 23.3093C406.77 23.3017 406.785 23.2927 406.802 23.2828C406.82 23.2729 406.84 23.2617 406.862 23.2496L408.038 25.4559L409.214 27.6623C409.237 27.6499 409.258 27.6384 409.276 27.6282C409.293 27.618 409.309 27.6088 409.322 27.6009C409.335 27.5931 409.347 27.5862 409.355 27.5809C409.364 27.5757 409.371 27.5714 409.374 27.569C409.376 27.5678 409.378 27.5669 409.378 27.5665C409.378 27.5664 409.379 27.5662 409.379 27.5663C409.379 27.5663 409.378 27.5665 409.378 27.5667C409.377 27.5672 409.375 27.5684 409.373 27.57C409.37 27.5716 409.366 27.574 409.362 27.5769C409.357 27.5797 409.351 27.5836 409.344 27.588C409.336 27.5925 409.327 27.5981 409.316 27.6045C409.305 27.6109 409.292 27.6188 409.276 27.6276C409.261 27.6365 409.241 27.6473 409.219 27.6593L408.043 25.453ZM180.688 26.0321L182.25 24.0805C180.525 22.6996 178.008 22.9796 176.628 24.7023L178.579 26.2655L180.53 27.8287C180.186 28.2588 179.557 28.3294 179.125 27.9837L180.688 26.0321ZM178.579 26.2655L176.628 24.7029C175.246 26.4279 175.527 28.9446 177.249 30.3249L178.812 28.3739L180.376 26.4229C180.806 26.7674 180.876 27.3961 180.531 27.8281L178.579 26.2655ZM178.812 28.3739L180.764 29.9364L182.639 27.5946L180.688 26.0321L178.736 24.4696L176.861 26.8114L178.812 28.3739ZM410.074 26.0712L412.281 24.8955C411.242 22.9472 408.82 22.2069 406.87 23.2453L408.045 25.452L409.22 27.6587C408.732 27.9187 408.127 27.7332 407.868 27.2468L410.074 26.0712ZM408.045 25.452L405.838 26.627L407.248 29.2754L409.455 28.1005L411.662 26.9255L410.252 24.2771L408.045 25.452ZM409.455 28.1005L410.631 30.3068C412.579 29.2686 413.319 26.8466 412.281 24.8962L410.074 26.0712L407.868 27.2461C407.608 26.7578 407.793 26.1533 408.279 25.8942L409.455 28.1005Z" fill="url(#paint0_linear_424_1949)"/>
<mask id="mask0_424_1949" style="mask-type:alpha" maskUnits="userSpaceOnUse" x="416" y="0" width="192" height="161">
<path d="M515.74 77.754L579.384 43.2675M579.384 43.2675L598.732 33.1594C606.55 21.4275 604.842 4.02429 604.842 4.02429L446.105 91.6517C420.207 102.08 414.042 126.182 422.643 142.638C434.064 164.489 459.116 159.72 464.678 148.881C471.62 135.354 467.122 121.321 448.059 126.51M579.384 43.2675C579.384 43.2675 589.095 55.8568 577.857 68.2405L564.619 75.3756M513.194 102.727L564.619 75.3756M564.619 75.3756C564.619 75.3756 573.78 87.256 561.564 100.943L526.752 121.321L476.025 149.7" stroke="black" stroke-width="5" stroke-linecap="round"/>
</mask>
<g mask="url(#mask0_424_1949)">
<rect x="393.37" y="-24.1263" width="237.26" height="236.796" fill="url(#paint1_linear_424_1949)"/>
</g>
<mask id="mask1_424_1949" style="mask-type:alpha" maskUnits="userSpaceOnUse" x="8" y="0" width="132" height="146">
<path d="M97.569 79.2805L37.6325 46.0069M37.6325 46.0069L15.8908 33.9371C7.19162 21.3338 13.1614 4.10681 13.1614 4.10681L137.189 73.2353M37.6325 46.0069C37.6325 46.0069 26.9681 60.5586 39.8998 74.1928L54.6442 81.7789M100.057 105.144L54.6442 81.7789M54.6442 81.7789C54.6442 81.7789 43.0085 93.5358 57.0431 108.582L109.349 137.526L118.886 143.004" stroke="black" stroke-width="5" stroke-linecap="round"/>
</mask>
<g mask="url(#mask1_424_1949)">
<rect x="-37.4526" y="-17.3295" width="209.552" height="184.944" fill="url(#paint2_linear_424_1949)"/>
</g>
<defs>
<linearGradient id="paint0_linear_424_1949" x1="277.86" y1="9.77405" x2="277.86" y2="187.091" gradientUnits="userSpaceOnUse">
<stop stop-color="#98C2FF"/>
<stop offset="1" stop-color="#0D6EF6"/>
</linearGradient>
<linearGradient id="paint1_linear_424_1949" x1="512" y1="51.8509" x2="512" y2="212.669" gradientUnits="userSpaceOnUse">
<stop stop-color="#98C2FF"/>
<stop offset="1" stop-color="#0D6EF6"/>
</linearGradient>
<linearGradient id="paint2_linear_424_1949" x1="67.3235" y1="42.0108" x2="67.3235" y2="167.614" gradientUnits="userSpaceOnUse">
<stop stop-color="#98C2FF"/>
<stop offset="1" stop-color="#0D6EF6"/>
</linearGradient>
</defs>
</svg>
